<svg xmlns="http://www.w3.org/2000/svg" xmlns:xlink="http://www.w3.org/1999/xlink" xmlns:s="https://github.com/nturley/netlistsvg" width="555" height="761"><style>svg {
  stroke:#000;
  fill:none;
}
text {
  fill:#000;
  stroke:none;
  font-size:10px;
  font-weight: bold;
  font-family: "Courier New", monospace;
}
line {
    stroke-linecap: round;
}
.nodelabel {
  text-anchor: middle;
}
.inputPortLabel {
  text-anchor: end;
}
.splitjoinBody {
  fill:#000;
}</style><g s:type="reduce_xor" transform="translate(236,82.5)" s:width="33" s:height="25" id="cell_$xor$p:/Code/Verilog/HW1_8bit_cla.v:15$1"><s:alias val="$xor"/><s:alias val="$reduce_xor"/><s:alias val="$_XOR_"/><path d="M3,0 A30 25 0 0 1 3,25 A30 25 0 0 0 33,12.5 A30 25 0 0 0 3,0" fill="#eebaff" class="cell_$xor$p:/Code/Verilog/HW1_8bit_cla.v:15$1"/><path d="M0,0 A30 25 0 0 1 0,25" class="cell_$xor$p:/Code/Verilog/HW1_8bit_cla.v:15$1"/><g s:x="2" s:y="5" s:pid="A"/><g s:x="2" s:y="20" s:pid="B"/><g s:x="33" s:y="12.5" s:pid="Y"/></g><g s:type="reduce_xor" transform="translate(236,142.5)" s:width="33" s:height="25" id="cell_$xor$p:/Code/Verilog/HW1_8bit_cla.v:16$2"><s:alias val="$xor"/><s:alias val="$reduce_xor"/><s:alias val="$_XOR_"/><path d="M3,0 A30 25 0 0 1 3,25 A30 25 0 0 0 33,12.5 A30 25 0 0 0 3,0" fill="#eebaff" class="cell_$xor$p:/Code/Verilog/HW1_8bit_cla.v:16$2"/><path d="M0,0 A30 25 0 0 1 0,25" class="cell_$xor$p:/Code/Verilog/HW1_8bit_cla.v:16$2"/><g s:x="2" s:y="5" s:pid="A"/><g s:x="2" s:y="20" s:pid="B"/><g s:x="33" s:y="12.5" s:pid="Y"/></g><g s:type="reduce_xor" transform="translate(236,202.5)" s:width="33" s:height="25" id="cell_$xor$p:/Code/Verilog/HW1_8bit_cla.v:17$3"><s:alias val="$xor"/><s:alias val="$reduce_xor"/><s:alias val="$_XOR_"/><path d="M3,0 A30 25 0 0 1 3,25 A30 25 0 0 0 33,12.5 A30 25 0 0 0 3,0" fill="#eebaff" class="cell_$xor$p:/Code/Verilog/HW1_8bit_cla.v:17$3"/><path d="M0,0 A30 25 0 0 1 0,25" class="cell_$xor$p:/Code/Verilog/HW1_8bit_cla.v:17$3"/><g s:x="2" s:y="5" s:pid="A"/><g s:x="2" s:y="20" s:pid="B"/><g s:x="33" s:y="12.5" s:pid="Y"/></g><g s:type="reduce_xor" transform="translate(236,262.5)" s:width="33" s:height="25" id="cell_$xor$p:/Code/Verilog/HW1_8bit_cla.v:18$4"><s:alias val="$xor"/><s:alias val="$reduce_xor"/><s:alias val="$_XOR_"/><path d="M3,0 A30 25 0 0 1 3,25 A30 25 0 0 0 33,12.5 A30 25 0 0 0 3,0" fill="#eebaff" class="cell_$xor$p:/Code/Verilog/HW1_8bit_cla.v:18$4"/><path d="M0,0 A30 25 0 0 1 0,25" class="cell_$xor$p:/Code/Verilog/HW1_8bit_cla.v:18$4"/><g s:x="2" s:y="5" s:pid="A"/><g s:x="2" s:y="20" s:pid="B"/><g s:x="33" s:y="12.5" s:pid="Y"/></g><g s:type="reduce_xor" transform="translate(236,357.5)" s:width="33" s:height="25" id="cell_$xor$p:/Code/Verilog/HW1_8bit_cla.v:19$5"><s:alias val="$xor"/><s:alias val="$reduce_xor"/><s:alias val="$_XOR_"/><path d="M3,0 A30 25 0 0 1 3,25 A30 25 0 0 0 33,12.5 A30 25 0 0 0 3,0" fill="#eebaff" class="cell_$xor$p:/Code/Verilog/HW1_8bit_cla.v:19$5"/><path d="M0,0 A30 25 0 0 1 0,25" class="cell_$xor$p:/Code/Verilog/HW1_8bit_cla.v:19$5"/><g s:x="2" s:y="5" s:pid="A"/><g s:x="2" s:y="20" s:pid="B"/><g s:x="33" s:y="12.5" s:pid="Y"/></g><g s:type="reduce_xor" transform="translate(236,496.5)" s:width="33" s:height="25" id="cell_$xor$p:/Code/Verilog/HW1_8bit_cla.v:20$6"><s:alias val="$xor"/><s:alias val="$reduce_xor"/><s:alias val="$_XOR_"/><path d="M3,0 A30 25 0 0 1 3,25 A30 25 0 0 0 33,12.5 A30 25 0 0 0 3,0" fill="#eebaff" class="cell_$xor$p:/Code/Verilog/HW1_8bit_cla.v:20$6"/><path d="M0,0 A30 25 0 0 1 0,25" class="cell_$xor$p:/Code/Verilog/HW1_8bit_cla.v:20$6"/><g s:x="2" s:y="5" s:pid="A"/><g s:x="2" s:y="20" s:pid="B"/><g s:x="33" s:y="12.5" s:pid="Y"/></g><g s:type="reduce_xor" transform="translate(236,556.5)" s:width="33" s:height="25" id="cell_$xor$p:/Code/Verilog/HW1_8bit_cla.v:21$7"><s:alias val="$xor"/><s:alias val="$reduce_xor"/><s:alias val="$_XOR_"/><path d="M3,0 A30 25 0 0 1 3,25 A30 25 0 0 0 33,12.5 A30 25 0 0 0 3,0" fill="#eebaff" class="cell_$xor$p:/Code/Verilog/HW1_8bit_cla.v:21$7"/><path d="M0,0 A30 25 0 0 1 0,25" class="cell_$xor$p:/Code/Verilog/HW1_8bit_cla.v:21$7"/><g s:x="2" s:y="5" s:pid="A"/><g s:x="2" s:y="20" s:pid="B"/><g s:x="33" s:y="12.5" s:pid="Y"/></g><g s:type="reduce_xor" transform="translate(236,616.5)" s:width="33" s:height="25" id="cell_$xor$p:/Code/Verilog/HW1_8bit_cla.v:22$8"><s:alias val="$xor"/><s:alias val="$reduce_xor"/><s:alias val="$_XOR_"/><path d="M3,0 A30 25 0 0 1 3,25 A30 25 0 0 0 33,12.5 A30 25 0 0 0 3,0" fill="#eebaff" class="cell_$xor$p:/Code/Verilog/HW1_8bit_cla.v:22$8"/><path d="M0,0 A30 25 0 0 1 0,25" class="cell_$xor$p:/Code/Verilog/HW1_8bit_cla.v:22$8"/><g s:x="2" s:y="5" s:pid="A"/><g s:x="2" s:y="20" s:pid="B"/><g s:x="33" s:y="12.5" s:pid="Y"/></g><g s:type="reduce_xor" transform="translate(370,386)" s:width="33" s:height="25" id="cell_$xor$p:/Code/Verilog/HW1_8bit_cla.v:52$9"><s:alias val="$xor"/><s:alias val="$reduce_xor"/><s:alias val="$_XOR_"/><path d="M3,0 A30 25 0 0 1 3,25 A30 25 0 0 0 33,12.5 A30 25 0 0 0 3,0" fill="#eebaff" class="cell_$xor$p:/Code/Verilog/HW1_8bit_cla.v:52$9"/><path d="M0,0 A30 25 0 0 1 0,25" class="cell_$xor$p:/Code/Verilog/HW1_8bit_cla.v:52$9"/><g s:x="2" s:y="5" s:pid="A"/><g s:x="2" s:y="20" s:pid="B"/><g s:x="33" s:y="12.5" s:pid="Y"/></g><g s:type="generic" transform="translate(489,115.5)" s:width="30" s:height="40" id="cell_lower_cla"><text x="15" y="-4" class="nodelabel cell_lower_cla" s:attribute="ref">CLA_4bit</text><rect width="30" height="120" s:generic="body" fill="#ffae46" rx="0" class="cell_lower_cla"/><g transform="translate(0,10)" s:x="0" s:y="10" s:pid="in0" id="port_lower_cla~a"><text x="-3" y="-4" class="inputPortLabel cell_lower_cla">a</text></g><g transform="translate(0,30)" s:x="0" s:y="10" s:pid="in0" id="port_lower_cla~b"><text x="-3" y="-4" class="inputPortLabel cell_lower_cla">b</text></g><g transform="translate(0,50)" s:x="0" s:y="10" s:pid="in0" id="port_lower_cla~c3"><text x="-3" y="-4" class="inputPortLabel cell_lower_cla">c3</text></g><g transform="translate(0,70)" s:x="0" s:y="10" s:pid="in0" id="port_lower_cla~cin"><text x="-3" y="-4" class="inputPortLabel cell_lower_cla">cin</text></g><g transform="translate(0,90)" s:x="0" s:y="10" s:pid="in0" id="port_lower_cla~cout"><text x="-3" y="-4" class="inputPortLabel cell_lower_cla">cout</text></g><g transform="translate(0,110)" s:x="0" s:y="10" s:pid="in0" id="port_lower_cla~sum"><text x="-3" y="-4" class="inputPortLabel cell_lower_cla">sum</text></g></g><g s:type="generic" transform="translate(489,453.5)" s:width="30" s:height="40" id="cell_upper_cla"><text x="15" y="-4" class="nodelabel cell_upper_cla" s:attribute="ref">CLA_4bit</text><rect width="30" height="120" s:generic="body" fill="#ffae46" rx="0" class="cell_upper_cla"/><g transform="translate(0,10)" s:x="0" s:y="10" s:pid="in0" id="port_upper_cla~a"><text x="-3" y="-4" class="inputPortLabel cell_upper_cla">a</text></g><g transform="translate(0,30)" s:x="0" s:y="10" s:pid="in0" id="port_upper_cla~b"><text x="-3" y="-4" class="inputPortLabel cell_upper_cla">b</text></g><g transform="translate(0,50)" s:x="0" s:y="10" s:pid="in0" id="port_upper_cla~c3"><text x="-3" y="-4" class="inputPortLabel cell_upper_cla">c3</text></g><g transform="translate(0,70)" s:x="0" s:y="10" s:pid="in0" id="port_upper_cla~cin"><text x="-3" y="-4" class="inputPortLabel cell_upper_cla">cin</text></g><g transform="translate(0,90)" s:x="0" s:y="10" s:pid="in0" id="port_upper_cla~cout"><text x="-3" y="-4" class="inputPortLabel cell_upper_cla">cout</text></g><g transform="translate(0,110)" s:x="0" s:y="10" s:pid="in0" id="port_upper_cla~sum"><text x="-3" y="-4" class="inputPortLabel cell_upper_cla">sum</text></g></g><g s:type="inputExt" transform="translate(116,719.5)" s:width="30" s:height="20" id="cell_a"><text x="15" y="-4" class="nodelabel cell_a" s:attribute="ref">a</text><s:alias val="$_inputExt_"/><path d="M0,0 L0,20 L15,20 L30,10 L15,0 Z" fill="#8bcaff" class="cell_a"/><g s:x="30" s:y="10" s:pid="Y"/></g><g s:type="inputExt" transform="translate(12,147.5)" s:width="30" s:height="20" id="cell_b"><text x="15" y="-4" class="nodelabel cell_b" s:attribute="ref">b</text><s:alias val="$_inputExt_"/><path d="M0,0 L0,20 L15,20 L30,10 L15,0 Z" fill="#8bcaff" class="cell_b"/><g s:x="30" s:y="10" s:pid="Y"/></g><g s:type="inputExt" transform="translate(116,22)" s:width="30" s:height="20" id="cell_mode"><text x="15" y="-4" class="nodelabel cell_mode" s:attribute="ref">mode</text><s:alias val="$_inputExt_"/><path d="M0,0 L0,20 L15,20 L30,10 L15,0 Z" fill="#8bcaff" class="cell_mode"/><g s:x="30" s:y="10" s:pid="Y"/></g><g s:type="outputExt" transform="translate(489,656.5)" s:width="30" s:height="20" id="cell_sum"><text x="15" y="-4" class="nodelabel cell_sum" s:attribute="ref">sum</text><s:alias val="$_outputExt_"/><path d="M30,0 L30,20 L15,20 L0,10 L15,0 Z" fill="#169300" class="cell_sum"/><g s:x="0" s:y="10" s:pid="A"/></g><g s:type="outputExt" transform="translate(489,323.5)" s:width="30" s:height="20" id="cell_c8"><text x="15" y="-4" class="nodelabel cell_c8" s:attribute="ref">c8</text><s:alias val="$_outputExt_"/><path d="M30,0 L30,20 L15,20 L0,10 L15,0 Z" fill="#169300" class="cell_c8"/><g s:x="0" s:y="10" s:pid="A"/></g><g s:type="outputExt" transform="translate(489,388.5)" s:width="30" s:height="20" id="cell_overflow"><text x="15" y="-4" class="nodelabel cell_overflow" s:attribute="ref">overflow</text><s:alias val="$_outputExt_"/><path d="M30,0 L30,20 L15,20 L0,10 L15,0 Z" fill="#169300" class="cell_overflow"/><g s:x="0" s:y="10" s:pid="A"/></g><g s:type="join" transform="translate(325.2,124.5)" s:width="5" s:height="40" id="cell_$join$,29,30,31,32,"><rect width="5" height="80" class="splitjoinBody" s:generic="body"/><s:alias val="$_join_"/><g s:x="5" s:y="20" s:pid="out"/><g transform="translate(-1,10)" s:x="-1" s:y="10" s:pid="in0"><text x="-3" y="-4" class="inputPortLabel">0</text></g><g transform="translate(-1,30)" s:x="-1" s:y="10" s:pid="in0"><text x="-3" y="-4" class="inputPortLabel">1</text></g><g transform="translate(-1,50)" s:x="-1" s:y="10" s:pid="in0"><text x="-3" y="-4" class="inputPortLabel">2</text></g><g transform="translate(-1,70)" s:x="-1" s:y="10" s:pid="in0"><text x="-3" y="-4" class="inputPortLabel">3</text></g></g><g s:type="join" transform="translate(325.2,478.5)" s:width="5" s:height="40" id="cell_$join$,33,34,35,36,"><rect width="5" height="80" class="splitjoinBody" s:generic="body"/><s:alias val="$_join_"/><g s:x="5" s:y="20" s:pid="out"/><g transform="translate(-1,10)" s:x="-1" s:y="10" s:pid="in0"><text x="-3" y="-4" class="inputPortLabel">0</text></g><g transform="translate(-1,30)" s:x="-1" s:y="10" s:pid="in0"><text x="-3" y="-4" class="inputPortLabel">1</text></g><g transform="translate(-1,50)" s:x="-1" s:y="10" s:pid="in0"><text x="-3" y="-4" class="inputPortLabel">2</text></g><g transform="translate(-1,70)" s:x="-1" s:y="10" s:pid="in0"><text x="-3" y="-4" class="inputPortLabel">3</text></g></g><g s:type="join" transform="translate(329,646)" s:width="5" s:height="40" id="cell_$join$,19,20,21,22,23,24,25,26,"><rect width="5" height="40" class="splitjoinBody" s:generic="body"/><s:alias val="$_join_"/><g s:x="5" s:y="20" s:pid="out"/><g transform="translate(-1,10)" s:x="-1" s:y="10" s:pid="in0"><text x="-3" y="-4" class="inputPortLabel">0:3</text></g><g transform="translate(-1,30)" s:x="-1" s:y="10" s:pid="in0"><text x="-3" y="-4" class="inputPortLabel">4:7</text></g></g><g s:type="split" transform="translate(132,77)" s:width="5" s:height="40" id="cell_$split$,10,11,12,13,14,15,16,17,"><rect width="5" height="160" class="splitjoinBody" s:generic="body"/><s:alias val="$_split_"/><g s:x="-1" s:y="20" s:pid="in"/><g transform="translate(5,10)" s:x="5" s:y="10" s:pid="out0"><text x="5" y="-4">0</text></g><g transform="translate(5,30)" s:x="5" s:y="10" s:pid="out0"><text x="5" y="-4">1</text></g><g transform="translate(5,50)" s:x="5" s:y="10" s:pid="out0"><text x="5" y="-4">2</text></g><g transform="translate(5,70)" s:x="5" s:y="10" s:pid="out0"><text x="5" y="-4">3</text></g><g transform="translate(5,90)" s:x="5" s:y="10" s:pid="out0"><text x="5" y="-4">4</text></g><g transform="translate(5,110)" s:x="5" s:y="10" s:pid="out0"><text x="5" y="-4">5</text></g><g transform="translate(5,130)" s:x="5" s:y="10" s:pid="out0"><text x="5" y="-4">6</text></g><g transform="translate(5,150)" s:x="5" s:y="10" s:pid="out0"><text x="5" y="-4">7</text></g></g><g s:type="split" transform="translate(310,709)" s:width="5" s:height="40" id="cell_$split$,2,3,4,5,6,7,8,9,"><rect width="5" height="40" class="splitjoinBody" s:generic="body"/><s:alias val="$_split_"/><g s:x="-1" s:y="20" s:pid="in"/><g transform="translate(5,10)" s:x="5" s:y="10" s:pid="out0"><text x="5" y="-4">0:3</text></g><g transform="translate(5,30)" s:x="5" s:y="10" s:pid="out0"><text x="5" y="-4">4:7</text></g></g><line x1="138" x2="238" y1="87.5" y2="87.5" class="net_10 width_1" style="stroke-width: 1"/><line x1="146" x2="226" y1="32" y2="32" class="net_18 width_1" style="stroke-width: 1"/><line x1="226" x2="226" y1="32" y2="102.5" class="net_18 width_1" style="stroke-width: 1"/><circle cx="226" cy="32" r="2" style="fill:#000" class="net_18 width_1"/><circle cx="226" cy="102.5" r="2" style="fill:#000" class="net_18 width_1"/><line x1="226" x2="238" y1="102.5" y2="102.5" class="net_18 width_1" style="stroke-width: 1"/><line x1="146" x2="226" y1="32" y2="32" class="net_18 width_1" style="stroke-width: 1"/><line x1="226" x2="226" y1="32" y2="162.5" class="net_18 width_1" style="stroke-width: 1"/><circle cx="226" cy="162.5" r="2" style="fill:#000" class="net_18 width_1"/><line x1="226" x2="238" y1="162.5" y2="162.5" class="net_18 width_1" style="stroke-width: 1"/><line x1="146" x2="226" y1="32" y2="32" class="net_18 width_1" style="stroke-width: 1"/><line x1="226" x2="226" y1="32" y2="222.5" class="net_18 width_1" style="stroke-width: 1"/><circle cx="226" cy="222.5" r="2" style="fill:#000" class="net_18 width_1"/><line x1="226" x2="238" y1="222.5" y2="222.5" class="net_18 width_1" style="stroke-width: 1"/><line x1="146" x2="226" y1="32" y2="32" class="net_18 width_1" style="stroke-width: 1"/><line x1="226" x2="226" y1="32" y2="282.5" class="net_18 width_1" style="stroke-width: 1"/><circle cx="226" cy="282.5" r="2" style="fill:#000" class="net_18 width_1"/><line x1="226" x2="238" y1="282.5" y2="282.5" class="net_18 width_1" style="stroke-width: 1"/><line x1="146" x2="226" y1="32" y2="32" class="net_18 width_1" style="stroke-width: 1"/><line x1="226" x2="226" y1="32" y2="377.5" class="net_18 width_1" style="stroke-width: 1"/><circle cx="226" cy="377.5" r="2" style="fill:#000" class="net_18 width_1"/><line x1="226" x2="238" y1="377.5" y2="377.5" class="net_18 width_1" style="stroke-width: 1"/><line x1="146" x2="226" y1="32" y2="32" class="net_18 width_1" style="stroke-width: 1"/><line x1="226" x2="226" y1="32" y2="516.5" class="net_18 width_1" style="stroke-width: 1"/><circle cx="226" cy="516.5" r="2" style="fill:#000" class="net_18 width_1"/><line x1="226" x2="238" y1="516.5" y2="516.5" class="net_18 width_1" style="stroke-width: 1"/><line x1="146" x2="226" y1="32" y2="32" class="net_18 width_1" style="stroke-width: 1"/><line x1="226" x2="226" y1="32" y2="576.5" class="net_18 width_1" style="stroke-width: 1"/><circle cx="226" cy="576.5" r="2" style="fill:#000" class="net_18 width_1"/><line x1="226" x2="238" y1="576.5" y2="576.5" class="net_18 width_1" style="stroke-width: 1"/><line x1="146" x2="226" y1="32" y2="32" class="net_18 width_1" style="stroke-width: 1"/><line x1="226" x2="226" y1="32" y2="636.5" class="net_18 width_1" style="stroke-width: 1"/><line x1="226" x2="238" y1="636.5" y2="636.5" class="net_18 width_1" style="stroke-width: 1"/><line x1="146" x2="433" y1="32" y2="32" class="net_18 width_1" style="stroke-width: 1"/><line x1="433" x2="433" y1="32" y2="186" class="net_18 width_1" style="stroke-width: 1"/><line x1="433" x2="488" y1="186" y2="186" class="net_18 width_1" style="stroke-width: 1"/><line x1="138" x2="216" y1="107.5" y2="107.5" class="net_11 width_1" style="stroke-width: 1"/><line x1="216" x2="216" y1="107.5" y2="147.5" class="net_11 width_1" style="stroke-width: 1"/><line x1="216" x2="238" y1="147.5" y2="147.5" class="net_11 width_1" style="stroke-width: 1"/><line x1="138" x2="206" y1="127.5" y2="127.5" class="net_12 width_1" style="stroke-width: 1"/><line x1="206" x2="206" y1="127.5" y2="207.5" class="net_12 width_1" style="stroke-width: 1"/><line x1="206" x2="238" y1="207.5" y2="207.5" class="net_12 width_1" style="stroke-width: 1"/><line x1="138" x2="196" y1="147.5" y2="147.5" class="net_13 width_1" style="stroke-width: 1"/><line x1="196" x2="196" y1="147.5" y2="267.5" class="net_13 width_1" style="stroke-width: 1"/><line x1="196" x2="238" y1="267.5" y2="267.5" class="net_13 width_1" style="stroke-width: 1"/><line x1="138" x2="186" y1="167.5" y2="167.5" class="net_14 width_1" style="stroke-width: 1"/><line x1="186" x2="186" y1="167.5" y2="362.5" class="net_14 width_1" style="stroke-width: 1"/><line x1="186" x2="238" y1="362.5" y2="362.5" class="net_14 width_1" style="stroke-width: 1"/><line x1="138" x2="176" y1="187.5" y2="187.5" class="net_15 width_1" style="stroke-width: 1"/><line x1="176" x2="176" y1="187.5" y2="501.5" class="net_15 width_1" style="stroke-width: 1"/><line x1="176" x2="238" y1="501.5" y2="501.5" class="net_15 width_1" style="stroke-width: 1"/><line x1="138" x2="166" y1="207.5" y2="207.5" class="net_16 width_1" style="stroke-width: 1"/><line x1="166" x2="166" y1="207.5" y2="561.5" class="net_16 width_1" style="stroke-width: 1"/><line x1="166" x2="238" y1="561.5" y2="561.5" class="net_16 width_1" style="stroke-width: 1"/><line x1="138" x2="156" y1="227.5" y2="227.5" class="net_17 width_1" style="stroke-width: 1"/><line x1="156" x2="156" y1="227.5" y2="621.5" class="net_17 width_1" style="stroke-width: 1"/><line x1="156" x2="238" y1="621.5" y2="621.5" class="net_17 width_1" style="stroke-width: 1"/><line x1="315" x2="372" y1="391" y2="391" class="net_37 width_1" style="stroke-width: 1"/><line x1="315" x2="345" y1="391" y2="391" class="net_37 width_1" style="stroke-width: 1"/><line x1="345" x2="345" y1="391" y2="504" class="net_37 width_1" style="stroke-width: 1"/><circle cx="345" cy="391" r="2" style="fill:#000" class="net_37 width_1"/><line x1="345" x2="488" y1="504" y2="504" class="net_37 width_1" style="stroke-width: 1"/><line x1="315" x2="355" y1="333.5" y2="333.5" class="net_27 width_1" style="stroke-width: 1"/><line x1="355" x2="355" y1="333.5" y2="406" class="net_27 width_1" style="stroke-width: 1"/><circle cx="355" cy="333.5" r="2" style="fill:#000" class="net_27 width_1"/><line x1="355" x2="372" y1="406" y2="406" class="net_27 width_1" style="stroke-width: 1"/><line x1="315" x2="423" y1="333.5" y2="333.5" class="net_27 width_1" style="stroke-width: 1"/><line x1="423" x2="423" y1="333.5" y2="544" class="net_27 width_1" style="stroke-width: 1"/><circle cx="423" cy="333.5" r="2" style="fill:#000" class="net_27 width_1"/><line x1="423" x2="488" y1="544" y2="544" class="net_27 width_1" style="stroke-width: 1"/><line x1="315" x2="489" y1="333.5" y2="333.5" class="net_27 width_1" style="stroke-width: 1"/><line x1="316" x2="413" y1="719.5" y2="719.5" class="net_2,3,4,5 width_4" style="stroke-width: 2"/><line x1="413" x2="413" y1="719.5" y2="126" class="net_2,3,4,5 width_4" style="stroke-width: 2"/><line x1="413" x2="489" y1="126" y2="126" class="net_2,3,4,5 width_4" style="stroke-width: 2"/><line x1="331.2" x2="423" y1="165" y2="165" class="net_29,30,31,32 width_4" style="stroke-width: 2"/><line x1="423" x2="423" y1="165" y2="146" class="net_29,30,31,32 width_4" style="stroke-width: 2"/><line x1="423" x2="488" y1="146" y2="146" class="net_29,30,31,32 width_4" style="stroke-width: 2"/><line x1="403" x2="488" y1="206" y2="206" class="net_38 width_1" style="stroke-width: 1"/><line x1="403" x2="453" y1="206" y2="206" class="net_38 width_1" style="stroke-width: 1"/><line x1="453" x2="453" y1="206" y2="524" class="net_38 width_1" style="stroke-width: 1"/><circle cx="453" cy="206" r="2" style="fill:#000" class="net_38 width_1"/><line x1="453" x2="488" y1="524" y2="524" class="net_38 width_1" style="stroke-width: 1"/><line x1="269" x2="423" y1="322.5" y2="322.5" class="net_19,20,21,22 width_4" style="stroke-width: 2"/><line x1="423" x2="423" y1="322.5" y2="226" class="net_19,20,21,22 width_4" style="stroke-width: 2"/><line x1="423" x2="488" y1="226" y2="226" class="net_19,20,21,22 width_4" style="stroke-width: 2"/><line x1="269" x2="299" y1="322.5" y2="322.5" class="net_19,20,21,22 width_4" style="stroke-width: 2"/><line x1="299" x2="299" y1="322.5" y2="656.5" class="net_19,20,21,22 width_4" style="stroke-width: 2"/><circle cx="299" cy="322.5" r="3" style="fill:#000" class="net_19,20,21,22 width_4"/><line x1="299" x2="328" y1="656.5" y2="656.5" class="net_19,20,21,22 width_4" style="stroke-width: 2"/><line x1="316" x2="433" y1="739.5" y2="739.5" class="net_6,7,8,9 width_4" style="stroke-width: 2"/><line x1="433" x2="433" y1="739.5" y2="464" class="net_6,7,8,9 width_4" style="stroke-width: 2"/><line x1="433" x2="489" y1="464" y2="464" class="net_6,7,8,9 width_4" style="stroke-width: 2"/><line x1="331.2" x2="443" y1="519" y2="519" class="net_33,34,35,36 width_4" style="stroke-width: 2"/><line x1="443" x2="443" y1="519" y2="484" class="net_33,34,35,36 width_4" style="stroke-width: 2"/><line x1="443" x2="488" y1="484" y2="484" class="net_33,34,35,36 width_4" style="stroke-width: 2"/><line x1="269" x2="279" y1="676.5" y2="676.5" class="net_23,24,25,26 width_4" style="stroke-width: 2"/><line x1="279" x2="279" y1="676.5" y2="696" class="net_23,24,25,26 width_4" style="stroke-width: 2"/><line x1="279" x2="443" y1="696" y2="696" class="net_23,24,25,26 width_4" style="stroke-width: 2"/><line x1="443" x2="443" y1="696" y2="564" class="net_23,24,25,26 width_4" style="stroke-width: 2"/><circle cx="279" cy="676.5" r="3" style="fill:#000" class="net_23,24,25,26 width_4"/><line x1="443" x2="488" y1="564" y2="564" class="net_23,24,25,26 width_4" style="stroke-width: 2"/><line x1="269" x2="328" y1="676.5" y2="676.5" class="net_23,24,25,26 width_4" style="stroke-width: 2"/><line x1="335" x2="489" y1="666.5" y2="666.5" class="net_19,20,21,22,23,24,25,26 width_8" style="stroke-width: 2"/><line x1="403" x2="489" y1="398.5" y2="398.5" class="net_28 width_1" style="stroke-width: 1"/><line x1="269" x2="279" y1="95" y2="95" class="net_29 width_1" style="stroke-width: 1"/><line x1="279" x2="279" y1="95" y2="135" class="net_29 width_1" style="stroke-width: 1"/><line x1="279" x2="324.2" y1="135" y2="135" class="net_29 width_1" style="stroke-width: 1"/><line x1="269" x2="324.2" y1="155" y2="155" class="net_30 width_1" style="stroke-width: 1"/><line x1="269" x2="279" y1="215" y2="215" class="net_31 width_1" style="stroke-width: 1"/><line x1="279" x2="279" y1="215" y2="175" class="net_31 width_1" style="stroke-width: 1"/><line x1="279" x2="324.2" y1="175" y2="175" class="net_31 width_1" style="stroke-width: 1"/><line x1="269" x2="289" y1="275" y2="275" class="net_32 width_1" style="stroke-width: 1"/><line x1="289" x2="289" y1="275" y2="195" class="net_32 width_1" style="stroke-width: 1"/><line x1="289" x2="324.2" y1="195" y2="195" class="net_32 width_1" style="stroke-width: 1"/><line x1="269" x2="279" y1="370" y2="370" class="net_33 width_1" style="stroke-width: 1"/><line x1="279" x2="279" y1="370" y2="489" class="net_33 width_1" style="stroke-width: 1"/><line x1="279" x2="324.2" y1="489" y2="489" class="net_33 width_1" style="stroke-width: 1"/><line x1="269" x2="324.2" y1="509" y2="509" class="net_34 width_1" style="stroke-width: 1"/><line x1="269" x2="279" y1="569" y2="569" class="net_35 width_1" style="stroke-width: 1"/><line x1="279" x2="279" y1="569" y2="529" class="net_35 width_1" style="stroke-width: 1"/><line x1="279" x2="324.2" y1="529" y2="529" class="net_35 width_1" style="stroke-width: 1"/><line x1="269" x2="289" y1="629" y2="629" class="net_36 width_1" style="stroke-width: 1"/><line x1="289" x2="289" y1="629" y2="549" class="net_36 width_1" style="stroke-width: 1"/><line x1="289" x2="324.2" y1="549" y2="549" class="net_36 width_1" style="stroke-width: 1"/><line x1="42" x2="131" y1="157.5" y2="157.5" class="net_10,11,12,13,14,15,16,17 width_8" style="stroke-width: 2"/><line x1="146" x2="309" y1="729.5" y2="729.5" class="net_2,3,4,5,6,7,8,9 width_8" style="stroke-width: 2"/><rect x="385.5" y="714.5" width="16" height="9" class="net_2,3,4,5 width_4 busLabel_4" style="fill: white; stroke: none"/><text x="384.5" y="722.5" class="net_2,3,4,5 width_4 busLabel_4">/4/</text><rect x="385.5" y="160" width="16" height="9" class="net_29,30,31,32 width_4 busLabel_4" style="fill: white; stroke: none"/><text x="384.5" y="168" class="net_29,30,31,32 width_4 busLabel_4">/4/</text><rect x="385.5" y="734.5" width="16" height="9" class="net_6,7,8,9 width_4 busLabel_4" style="fill: white; stroke: none"/><text x="384.5" y="742.5" class="net_6,7,8,9 width_4 busLabel_4">/4/</text><rect x="385.5" y="514" width="16" height="9" class="net_33,34,35,36 width_4 busLabel_4" style="fill: white; stroke: none"/><text x="384.5" y="522" class="net_33,34,35,36 width_4 busLabel_4">/4/</text><rect x="385.5" y="661.5" width="16" height="9" class="net_19,20,21,22,23,24,25,26 width_8 busLabel_8" style="fill: white; stroke: none"/><text x="384.5" y="669.5" class="net_19,20,21,22,23,24,25,26 width_8 busLabel_8">/8/</text><rect x="78" y="152.5" width="16" height="9" class="net_10,11,12,13,14,15,16,17 width_8 busLabel_8" style="fill: white; stroke: none"/><text x="77" y="160.5" class="net_10,11,12,13,14,15,16,17 width_8 busLabel_8">/8/</text><rect x="251.5" y="724.5" width="16" height="9" class="net_2,3,4,5,6,7,8,9 width_8 busLabel_8" style="fill: white; stroke: none"/><text x="250.5" y="732.5" class="net_2,3,4,5,6,7,8,9 width_8 busLabel_8">/8/</text></svg>