<svg xmlns="http://www.w3.org/2000/svg" xmlns:xlink="http://www.w3.org/1999/xlink" xmlns:s="https://github.com/nturley/netlistsvg" width="569" height="1155"><style>svg {
  stroke:#000;
  fill:none;
}
text {
  fill:#000;
  stroke:none;
  font-size:10px;
  font-weight: bold;
  font-family: "Courier New", monospace;
}
line {
    stroke-linecap: round;
}
.nodelabel {
  text-anchor: middle;
}
.inputPortLabel {
  text-anchor: end;
}
.splitjoinBody {
  fill:#000;
}</style><g s:type="and" transform="translate(302,169.5)" s:width="30" s:height="25" id="cell_$and$p:/Code/Verilog/HW1_4bit_cla.v:53$1"><s:alias val="$and"/><s:alias val="$logic_and"/><s:alias val="$_AND_"/><path d="M0,0 L0,25 L15,25 A15 12.5 0 0 0 15,0 Z" fill="#eebaff" class="cell_$and$p:/Code/Verilog/HW1_4bit_cla.v:53$1"/><g s:x="0" s:y="5" s:pid="A"/><g s:x="0" s:y="20" s:pid="B"/><g s:x="30" s:y="12.5" s:pid="Y"/></g><g s:type="and" transform="translate(202,23)" s:width="30" s:height="25" id="cell_$and$p:/Code/Verilog/HW1_4bit_cla.v:57$3"><s:alias val="$and"/><s:alias val="$logic_and"/><s:alias val="$_AND_"/><path d="M0,0 L0,25 L15,25 A15 12.5 0 0 0 15,0 Z" fill="#eebaff" class="cell_$and$p:/Code/Verilog/HW1_4bit_cla.v:57$3"/><g s:x="0" s:y="5" s:pid="A"/><g s:x="0" s:y="20" s:pid="B"/><g s:x="30" s:y="12.5" s:pid="Y"/></g><g s:type="and" transform="translate(202,83)" s:width="30" s:height="25" id="cell_$and$p:/Code/Verilog/HW1_4bit_cla.v:58$4"><s:alias val="$and"/><s:alias val="$logic_and"/><s:alias val="$_AND_"/><path d="M0,0 L0,25 L15,25 A15 12.5 0 0 0 15,0 Z" fill="#eebaff" class="cell_$and$p:/Code/Verilog/HW1_4bit_cla.v:58$4"/><g s:x="0" s:y="5" s:pid="A"/><g s:x="0" s:y="20" s:pid="B"/><g s:x="30" s:y="12.5" s:pid="Y"/></g><g s:type="and" transform="translate(302,90.5)" s:width="30" s:height="25" id="cell_$and$p:/Code/Verilog/HW1_4bit_cla.v:58$5"><s:alias val="$and"/><s:alias val="$logic_and"/><s:alias val="$_AND_"/><path d="M0,0 L0,25 L15,25 A15 12.5 0 0 0 15,0 Z" fill="#eebaff" class="cell_$and$p:/Code/Verilog/HW1_4bit_cla.v:58$5"/><g s:x="0" s:y="5" s:pid="A"/><g s:x="0" s:y="20" s:pid="B"/><g s:x="30" s:y="12.5" s:pid="Y"/></g><g s:type="and" transform="translate(122,558)" s:width="30" s:height="25" id="cell_$and$p:/Code/Verilog/HW1_4bit_cla.v:62$8"><s:alias val="$and"/><s:alias val="$logic_and"/><s:alias val="$_AND_"/><path d="M0,0 L0,25 L15,25 A15 12.5 0 0 0 15,0 Z" fill="#eebaff" class="cell_$and$p:/Code/Verilog/HW1_4bit_cla.v:62$8"/><g s:x="0" s:y="5" s:pid="A"/><g s:x="0" s:y="20" s:pid="B"/><g s:x="30" s:y="12.5" s:pid="Y"/></g><g s:type="and" transform="translate(202,625.5)" s:width="30" s:height="25" id="cell_$and$p:/Code/Verilog/HW1_4bit_cla.v:63$10"><s:alias val="$and"/><s:alias val="$logic_and"/><s:alias val="$_AND_"/><path d="M0,0 L0,25 L15,25 A15 12.5 0 0 0 15,0 Z" fill="#eebaff" class="cell_$and$p:/Code/Verilog/HW1_4bit_cla.v:63$10"/><g s:x="0" s:y="5" s:pid="A"/><g s:x="0" s:y="20" s:pid="B"/><g s:x="30" s:y="12.5" s:pid="Y"/></g><g s:type="and" transform="translate(122,618)" s:width="30" s:height="25" id="cell_$and$p:/Code/Verilog/HW1_4bit_cla.v:63$9"><s:alias val="$and"/><s:alias val="$logic_and"/><s:alias val="$_AND_"/><path d="M0,0 L0,25 L15,25 A15 12.5 0 0 0 15,0 Z" fill="#eebaff" class="cell_$and$p:/Code/Verilog/HW1_4bit_cla.v:63$9"/><g s:x="0" s:y="5" s:pid="A"/><g s:x="0" s:y="20" s:pid="B"/><g s:x="30" s:y="12.5" s:pid="Y"/></g><g s:type="and" transform="translate(122,713)" s:width="30" s:height="25" id="cell_$and$p:/Code/Verilog/HW1_4bit_cla.v:64$11"><s:alias val="$and"/><s:alias val="$logic_and"/><s:alias val="$_AND_"/><path d="M0,0 L0,25 L15,25 A15 12.5 0 0 0 15,0 Z" fill="#eebaff" class="cell_$and$p:/Code/Verilog/HW1_4bit_cla.v:64$11"/><g s:x="0" s:y="5" s:pid="A"/><g s:x="0" s:y="20" s:pid="B"/><g s:x="30" s:y="12.5" s:pid="Y"/></g><g s:type="and" transform="translate(202,720.5)" s:width="30" s:height="25" id="cell_$and$p:/Code/Verilog/HW1_4bit_cla.v:64$12"><s:alias val="$and"/><s:alias val="$logic_and"/><s:alias val="$_AND_"/><path d="M0,0 L0,25 L15,25 A15 12.5 0 0 0 15,0 Z" fill="#eebaff" class="cell_$and$p:/Code/Verilog/HW1_4bit_cla.v:64$12"/><g s:x="0" s:y="5" s:pid="A"/><g s:x="0" s:y="20" s:pid="B"/><g s:x="30" s:y="12.5" s:pid="Y"/></g><g s:type="and" transform="translate(302,728)" s:width="30" s:height="25" id="cell_$and$p:/Code/Verilog/HW1_4bit_cla.v:64$13"><s:alias val="$and"/><s:alias val="$logic_and"/><s:alias val="$_AND_"/><path d="M0,0 L0,25 L15,25 A15 12.5 0 0 0 15,0 Z" fill="#eebaff" class="cell_$and$p:/Code/Verilog/HW1_4bit_cla.v:64$13"/><g s:x="0" s:y="5" s:pid="A"/><g s:x="0" s:y="20" s:pid="B"/><g s:x="30" s:y="12.5" s:pid="Y"/></g><g s:type="and" transform="translate(52,915.5)" s:width="30" s:height="25" id="cell_$and$p:/Code/Verilog/HW1_4bit_cla.v:68$17"><s:alias val="$and"/><s:alias val="$logic_and"/><s:alias val="$_AND_"/><path d="M0,0 L0,25 L15,25 A15 12.5 0 0 0 15,0 Z" fill="#eebaff" class="cell_$and$p:/Code/Verilog/HW1_4bit_cla.v:68$17"/><g s:x="0" s:y="5" s:pid="A"/><g s:x="0" s:y="20" s:pid="B"/><g s:x="30" s:y="12.5" s:pid="Y"/></g><g s:type="and" transform="translate(52,975.5)" s:width="30" s:height="25" id="cell_$and$p:/Code/Verilog/HW1_4bit_cla.v:69$18"><s:alias val="$and"/><s:alias val="$logic_and"/><s:alias val="$_AND_"/><path d="M0,0 L0,25 L15,25 A15 12.5 0 0 0 15,0 Z" fill="#eebaff" class="cell_$and$p:/Code/Verilog/HW1_4bit_cla.v:69$18"/><g s:x="0" s:y="5" s:pid="A"/><g s:x="0" s:y="20" s:pid="B"/><g s:x="30" s:y="12.5" s:pid="Y"/></g><g s:type="and" transform="translate(122,983)" s:width="30" s:height="25" id="cell_$and$p:/Code/Verilog/HW1_4bit_cla.v:69$19"><s:alias val="$and"/><s:alias val="$logic_and"/><s:alias val="$_AND_"/><path d="M0,0 L0,25 L15,25 A15 12.5 0 0 0 15,0 Z" fill="#eebaff" class="cell_$and$p:/Code/Verilog/HW1_4bit_cla.v:69$19"/><g s:x="0" s:y="5" s:pid="A"/><g s:x="0" s:y="20" s:pid="B"/><g s:x="30" s:y="12.5" s:pid="Y"/></g><g s:type="and" transform="translate(52,1035.5)" s:width="30" s:height="25" id="cell_$and$p:/Code/Verilog/HW1_4bit_cla.v:70$20"><s:alias val="$and"/><s:alias val="$logic_and"/><s:alias val="$_AND_"/><path d="M0,0 L0,25 L15,25 A15 12.5 0 0 0 15,0 Z" fill="#eebaff" class="cell_$and$p:/Code/Verilog/HW1_4bit_cla.v:70$20"/><g s:x="0" s:y="5" s:pid="A"/><g s:x="0" s:y="20" s:pid="B"/><g s:x="30" s:y="12.5" s:pid="Y"/></g><g s:type="and" transform="translate(122,1043)" s:width="30" s:height="25" id="cell_$and$p:/Code/Verilog/HW1_4bit_cla.v:70$21"><s:alias val="$and"/><s:alias val="$logic_and"/><s:alias val="$_AND_"/><path d="M0,0 L0,25 L15,25 A15 12.5 0 0 0 15,0 Z" fill="#eebaff" class="cell_$and$p:/Code/Verilog/HW1_4bit_cla.v:70$21"/><g s:x="0" s:y="5" s:pid="A"/><g s:x="0" s:y="20" s:pid="B"/><g s:x="30" s:y="12.5" s:pid="Y"/></g><g s:type="and" transform="translate(202,1050.5)" s:width="30" s:height="25" id="cell_$and$p:/Code/Verilog/HW1_4bit_cla.v:70$22"><s:alias val="$and"/><s:alias val="$logic_and"/><s:alias val="$_AND_"/><path d="M0,0 L0,25 L15,25 A15 12.5 0 0 0 15,0 Z" fill="#eebaff" class="cell_$and$p:/Code/Verilog/HW1_4bit_cla.v:70$22"/><g s:x="0" s:y="5" s:pid="A"/><g s:x="0" s:y="20" s:pid="B"/><g s:x="30" s:y="12.5" s:pid="Y"/></g><g s:type="and" transform="translate(52,1095.5)" s:width="30" s:height="25" id="cell_$and$p:/Code/Verilog/HW1_4bit_cla.v:71$23"><s:alias val="$and"/><s:alias val="$logic_and"/><s:alias val="$_AND_"/><path d="M0,0 L0,25 L15,25 A15 12.5 0 0 0 15,0 Z" fill="#eebaff" class="cell_$and$p:/Code/Verilog/HW1_4bit_cla.v:71$23"/><g s:x="0" s:y="5" s:pid="A"/><g s:x="0" s:y="20" s:pid="B"/><g s:x="30" s:y="12.5" s:pid="Y"/></g><g s:type="and" transform="translate(122,1103)" s:width="30" s:height="25" id="cell_$and$p:/Code/Verilog/HW1_4bit_cla.v:71$24"><s:alias val="$and"/><s:alias val="$logic_and"/><s:alias val="$_AND_"/><path d="M0,0 L0,25 L15,25 A15 12.5 0 0 0 15,0 Z" fill="#eebaff" class="cell_$and$p:/Code/Verilog/HW1_4bit_cla.v:71$24"/><g s:x="0" s:y="5" s:pid="A"/><g s:x="0" s:y="20" s:pid="B"/><g s:x="30" s:y="12.5" s:pid="Y"/></g><g s:type="and" transform="translate(202,1110.5)" s:width="30" s:height="25" id="cell_$and$p:/Code/Verilog/HW1_4bit_cla.v:71$25"><s:alias val="$and"/><s:alias val="$logic_and"/><s:alias val="$_AND_"/><path d="M0,0 L0,25 L15,25 A15 12.5 0 0 0 15,0 Z" fill="#eebaff" class="cell_$and$p:/Code/Verilog/HW1_4bit_cla.v:71$25"/><g s:x="0" s:y="5" s:pid="A"/><g s:x="0" s:y="20" s:pid="B"/><g s:x="30" s:y="12.5" s:pid="Y"/></g><g s:type="and" transform="translate(302,1118)" s:width="30" s:height="25" id="cell_$and$p:/Code/Verilog/HW1_4bit_cla.v:71$26"><s:alias val="$and"/><s:alias val="$logic_and"/><s:alias val="$_AND_"/><path d="M0,0 L0,25 L15,25 A15 12.5 0 0 0 15,0 Z" fill="#eebaff" class="cell_$and$p:/Code/Verilog/HW1_4bit_cla.v:71$26"/><g s:x="0" s:y="5" s:pid="A"/><g s:x="0" s:y="20" s:pid="B"/><g s:x="30" s:y="12.5" s:pid="Y"/></g><g s:type="or" transform="translate(367,162)" s:width="30" s:height="25" id="cell_$or$p:/Code/Verilog/HW1_4bit_cla.v:54$2"><s:alias val="$or"/><s:alias val="$logic_or"/><s:alias val="$_OR_"/><path d="M0,25 L0,25 L15,25 A15 12.5 0 0 0 15,0 L0,0 A30 25 0 0 1 0,25 Z" fill="#eebaff" class="cell_$or$p:/Code/Verilog/HW1_4bit_cla.v:54$2"/><g s:x="2" s:y="5" s:pid="A"/><g s:x="2" s:y="20" s:pid="B"/><g s:x="30" s:y="12.5" s:pid="Y"/></g><g s:type="or" transform="translate(302,15.5)" s:width="30" s:height="25" id="cell_$or$p:/Code/Verilog/HW1_4bit_cla.v:59$6"><s:alias val="$or"/><s:alias val="$logic_or"/><s:alias val="$_OR_"/><path d="M0,25 L0,25 L15,25 A15 12.5 0 0 0 15,0 L0,0 A30 25 0 0 1 0,25 Z" fill="#eebaff" class="cell_$or$p:/Code/Verilog/HW1_4bit_cla.v:59$6"/><g s:x="2" s:y="5" s:pid="A"/><g s:x="2" s:y="20" s:pid="B"/><g s:x="30" s:y="12.5" s:pid="Y"/></g><g s:type="or" transform="translate(367,83)" s:width="30" s:height="25" id="cell_$or$p:/Code/Verilog/HW1_4bit_cla.v:59$7"><s:alias val="$or"/><s:alias val="$logic_or"/><s:alias val="$_OR_"/><path d="M0,25 L0,25 L15,25 A15 12.5 0 0 0 15,0 L0,0 A30 25 0 0 1 0,25 Z" fill="#eebaff" class="cell_$or$p:/Code/Verilog/HW1_4bit_cla.v:59$7"/><g s:x="2" s:y="5" s:pid="A"/><g s:x="2" s:y="20" s:pid="B"/><g s:x="30" s:y="12.5" s:pid="Y"/></g><g s:type="or" transform="translate(202,550.5)" s:width="30" s:height="25" id="cell_$or$p:/Code/Verilog/HW1_4bit_cla.v:65$14"><s:alias val="$or"/><s:alias val="$logic_or"/><s:alias val="$_OR_"/><path d="M0,25 L0,25 L15,25 A15 12.5 0 0 0 15,0 L0,0 A30 25 0 0 1 0,25 Z" fill="#eebaff" class="cell_$or$p:/Code/Verilog/HW1_4bit_cla.v:65$14"/><g s:x="2" s:y="5" s:pid="A"/><g s:x="2" s:y="20" s:pid="B"/><g s:x="30" s:y="12.5" s:pid="Y"/></g><g s:type="or" transform="translate(302,618)" s:width="30" s:height="25" id="cell_$or$p:/Code/Verilog/HW1_4bit_cla.v:65$15"><s:alias val="$or"/><s:alias val="$logic_or"/><s:alias val="$_OR_"/><path d="M0,25 L0,25 L15,25 A15 12.5 0 0 0 15,0 L0,0 A30 25 0 0 1 0,25 Z" fill="#eebaff" class="cell_$or$p:/Code/Verilog/HW1_4bit_cla.v:65$15"/><g s:x="2" s:y="5" s:pid="A"/><g s:x="2" s:y="20" s:pid="B"/><g s:x="30" s:y="12.5" s:pid="Y"/></g><g s:type="or" transform="translate(367,720.5)" s:width="30" s:height="25" id="cell_$or$p:/Code/Verilog/HW1_4bit_cla.v:65$16"><s:alias val="$or"/><s:alias val="$logic_or"/><s:alias val="$_OR_"/><path d="M0,25 L0,25 L15,25 A15 12.5 0 0 0 15,0 L0,0 A30 25 0 0 1 0,25 Z" fill="#eebaff" class="cell_$or$p:/Code/Verilog/HW1_4bit_cla.v:65$16"/><g s:x="2" s:y="5" s:pid="A"/><g s:x="2" s:y="20" s:pid="B"/><g s:x="30" s:y="12.5" s:pid="Y"/></g><g s:type="or" transform="translate(122,908)" s:width="30" s:height="25" id="cell_$or$p:/Code/Verilog/HW1_4bit_cla.v:72$27"><s:alias val="$or"/><s:alias val="$logic_or"/><s:alias val="$_OR_"/><path d="M0,25 L0,25 L15,25 A15 12.5 0 0 0 15,0 L0,0 A30 25 0 0 1 0,25 Z" fill="#eebaff" class="cell_$or$p:/Code/Verilog/HW1_4bit_cla.v:72$27"/><g s:x="2" s:y="5" s:pid="A"/><g s:x="2" s:y="20" s:pid="B"/><g s:x="30" s:y="12.5" s:pid="Y"/></g><g s:type="or" transform="translate(202,975.5)" s:width="30" s:height="25" id="cell_$or$p:/Code/Verilog/HW1_4bit_cla.v:72$28"><s:alias val="$or"/><s:alias val="$logic_or"/><s:alias val="$_OR_"/><path d="M0,25 L0,25 L15,25 A15 12.5 0 0 0 15,0 L0,0 A30 25 0 0 1 0,25 Z" fill="#eebaff" class="cell_$or$p:/Code/Verilog/HW1_4bit_cla.v:72$28"/><g s:x="2" s:y="5" s:pid="A"/><g s:x="2" s:y="20" s:pid="B"/><g s:x="30" s:y="12.5" s:pid="Y"/></g><g s:type="or" transform="translate(302,1043)" s:width="30" s:height="25" id="cell_$or$p:/Code/Verilog/HW1_4bit_cla.v:72$29"><s:alias val="$or"/><s:alias val="$logic_or"/><s:alias val="$_OR_"/><path d="M0,25 L0,25 L15,25 A15 12.5 0 0 0 15,0 L0,0 A30 25 0 0 1 0,25 Z" fill="#eebaff" class="cell_$or$p:/Code/Verilog/HW1_4bit_cla.v:72$29"/><g s:x="2" s:y="5" s:pid="A"/><g s:x="2" s:y="20" s:pid="B"/><g s:x="30" s:y="12.5" s:pid="Y"/></g><g s:type="or" transform="translate(367,1110.5)" s:width="30" s:height="25" id="cell_$or$p:/Code/Verilog/HW1_4bit_cla.v:72$30"><s:alias val="$or"/><s:alias val="$logic_or"/><s:alias val="$_OR_"/><path d="M0,25 L0,25 L15,25 A15 12.5 0 0 0 15,0 L0,0 A30 25 0 0 1 0,25 Z" fill="#eebaff" class="cell_$or$p:/Code/Verilog/HW1_4bit_cla.v:72$30"/><g s:x="2" s:y="5" s:pid="A"/><g s:x="2" s:y="20" s:pid="B"/><g s:x="30" s:y="12.5" s:pid="Y"/></g><g s:type="generic" transform="translate(527,383)" s:width="30" s:height="40" id="cell_pfa0"><text x="15" y="-4" class="nodelabel cell_pfa0" s:attribute="ref">partial_full_adder</text><rect width="30" height="120" s:generic="body" fill="#ffae46" rx="0" class="cell_pfa0"/><g transform="translate(0,10)" s:x="0" s:y="10" s:pid="in0" id="port_pfa0~a"><text x="-3" y="-4" class="inputPortLabel cell_pfa0">a</text></g><g transform="translate(0,30)" s:x="0" s:y="10" s:pid="in0" id="port_pfa0~b"><text x="-3" y="-4" class="inputPortLabel cell_pfa0">b</text></g><g transform="translate(0,50)" s:x="0" s:y="10" s:pid="in0" id="port_pfa0~cin"><text x="-3" y="-4" class="inputPortLabel cell_pfa0">cin</text></g><g transform="translate(0,70)" s:x="0" s:y="10" s:pid="in0" id="port_pfa0~g"><text x="-3" y="-4" class="inputPortLabel cell_pfa0">g</text></g><g transform="translate(0,90)" s:x="0" s:y="10" s:pid="in0" id="port_pfa0~p"><text x="-3" y="-4" class="inputPortLabel cell_pfa0">p</text></g><g transform="translate(0,110)" s:x="0" s:y="10" s:pid="in0" id="port_pfa0~sum"><text x="-3" y="-4" class="inputPortLabel cell_pfa0">sum</text></g></g><g s:type="generic" transform="translate(527,215)" s:width="30" s:height="40" id="cell_pfa1"><text x="15" y="-4" class="nodelabel cell_pfa1" s:attribute="ref">partial_full_adder</text><rect width="30" height="120" s:generic="body" fill="#ffae46" rx="0" class="cell_pfa1"/><g transform="translate(0,10)" s:x="0" s:y="10" s:pid="in0" id="port_pfa1~a"><text x="-3" y="-4" class="inputPortLabel cell_pfa1">a</text></g><g transform="translate(0,30)" s:x="0" s:y="10" s:pid="in0" id="port_pfa1~b"><text x="-3" y="-4" class="inputPortLabel cell_pfa1">b</text></g><g transform="translate(0,50)" s:x="0" s:y="10" s:pid="in0" id="port_pfa1~cin"><text x="-3" y="-4" class="inputPortLabel cell_pfa1">cin</text></g><g transform="translate(0,70)" s:x="0" s:y="10" s:pid="in0" id="port_pfa1~g"><text x="-3" y="-4" class="inputPortLabel cell_pfa1">g</text></g><g transform="translate(0,90)" s:x="0" s:y="10" s:pid="in0" id="port_pfa1~p"><text x="-3" y="-4" class="inputPortLabel cell_pfa1">p</text></g><g transform="translate(0,110)" s:x="0" s:y="10" s:pid="in0" id="port_pfa1~sum"><text x="-3" y="-4" class="inputPortLabel cell_pfa1">sum</text></g></g><g s:type="generic" transform="translate(527,37)" s:width="30" s:height="40" id="cell_pfa2"><text x="15" y="-4" class="nodelabel cell_pfa2" s:attribute="ref">partial_full_adder</text><rect width="30" height="120" s:generic="body" fill="#ffae46" rx="0" class="cell_pfa2"/><g transform="translate(0,10)" s:x="0" s:y="10" s:pid="in0" id="port_pfa2~a"><text x="-3" y="-4" class="inputPortLabel cell_pfa2">a</text></g><g transform="translate(0,30)" s:x="0" s:y="10" s:pid="in0" id="port_pfa2~b"><text x="-3" y="-4" class="inputPortLabel cell_pfa2">b</text></g><g transform="translate(0,50)" s:x="0" s:y="10" s:pid="in0" id="port_pfa2~cin"><text x="-3" y="-4" class="inputPortLabel cell_pfa2">cin</text></g><g transform="translate(0,70)" s:x="0" s:y="10" s:pid="in0" id="port_pfa2~g"><text x="-3" y="-4" class="inputPortLabel cell_pfa2">g</text></g><g transform="translate(0,90)" s:x="0" s:y="10" s:pid="in0" id="port_pfa2~p"><text x="-3" y="-4" class="inputPortLabel cell_pfa2">p</text></g><g transform="translate(0,110)" s:x="0" s:y="10" s:pid="in0" id="port_pfa2~sum"><text x="-3" y="-4" class="inputPortLabel cell_pfa2">sum</text></g></g><g s:type="generic" transform="translate(527,788)" s:width="30" s:height="40" id="cell_pfa3"><text x="15" y="-4" class="nodelabel cell_pfa3" s:attribute="ref">partial_full_adder</text><rect width="30" height="120" s:generic="body" fill="#ffae46" rx="0" class="cell_pfa3"/><g transform="translate(0,10)" s:x="0" s:y="10" s:pid="in0" id="port_pfa3~a"><text x="-3" y="-4" class="inputPortLabel cell_pfa3">a</text></g><g transform="translate(0,30)" s:x="0" s:y="10" s:pid="in0" id="port_pfa3~b"><text x="-3" y="-4" class="inputPortLabel cell_pfa3">b</text></g><g transform="translate(0,50)" s:x="0" s:y="10" s:pid="in0" id="port_pfa3~cin"><text x="-3" y="-4" class="inputPortLabel cell_pfa3">cin</text></g><g transform="translate(0,70)" s:x="0" s:y="10" s:pid="in0" id="port_pfa3~g"><text x="-3" y="-4" class="inputPortLabel cell_pfa3">g</text></g><g transform="translate(0,90)" s:x="0" s:y="10" s:pid="in0" id="port_pfa3~p"><text x="-3" y="-4" class="inputPortLabel cell_pfa3">p</text></g><g transform="translate(0,110)" s:x="0" s:y="10" s:pid="in0" id="port_pfa3~sum"><text x="-3" y="-4" class="inputPortLabel cell_pfa3">sum</text></g></g><g s:type="inputExt" transform="translate(202,246)" s:width="30" s:height="20" id="cell_a"><text x="15" y="-4" class="nodelabel cell_a" s:attribute="ref">a</text><s:alias val="$_inputExt_"/><path d="M0,0 L0,20 L15,20 L30,10 L15,0 Z" fill="#8bcaff" class="cell_a"/><g s:x="30" s:y="10" s:pid="Y"/></g><g s:type="inputExt" transform="translate(202,372)" s:width="30" s:height="20" id="cell_b"><text x="15" y="-4" class="nodelabel cell_b" s:attribute="ref">b</text><s:alias val="$_inputExt_"/><path d="M0,0 L0,20 L15,20 L30,10 L15,0 Z" fill="#8bcaff" class="cell_b"/><g s:x="30" s:y="10" s:pid="Y"/></g><g s:type="inputExt" transform="translate(202,474.5)" s:width="30" s:height="20" id="cell_cin"><text x="15" y="-4" class="nodelabel cell_cin" s:attribute="ref">cin</text><s:alias val="$_inputExt_"/><path d="M0,0 L0,20 L15,20 L30,10 L15,0 Z" fill="#8bcaff" class="cell_cin"/><g s:x="30" s:y="10" s:pid="Y"/></g><g s:type="outputExt" transform="translate(527,958.5)" s:width="30" s:height="20" id="cell_sum"><text x="15" y="-4" class="nodelabel cell_sum" s:attribute="ref">sum</text><s:alias val="$_outputExt_"/><path d="M30,0 L30,20 L15,20 L0,10 L15,0 Z" fill="#169300" class="cell_sum"/><g s:x="0" s:y="10" s:pid="A"/></g><g s:type="outputExt" transform="translate(527,1113)" s:width="30" s:height="20" id="cell_cout"><text x="15" y="-4" class="nodelabel cell_cout" s:attribute="ref">cout</text><s:alias val="$_outputExt_"/><path d="M30,0 L30,20 L15,20 L0,10 L15,0 Z" fill="#169300" class="cell_cout"/><g s:x="0" s:y="10" s:pid="A"/></g><g s:type="outputExt" transform="translate(527,723)" s:width="30" s:height="20" id="cell_c3"><text x="15" y="-4" class="nodelabel cell_c3" s:attribute="ref">c3</text><s:alias val="$_outputExt_"/><path d="M30,0 L30,20 L15,20 L0,10 L15,0 Z" fill="#169300" class="cell_c3"/><g s:x="0" s:y="10" s:pid="A"/></g><g s:type="join" transform="translate(311.8,928)" s:width="5" s:height="40" id="cell_$join$,11,12,13,14,"><rect width="5" height="80" class="splitjoinBody" s:generic="body"/><s:alias val="$_join_"/><g s:x="5" s:y="20" s:pid="out"/><g transform="translate(-1,10)" s:x="-1" s:y="10" s:pid="in0"><text x="-3" y="-4" class="inputPortLabel">0</text></g><g transform="translate(-1,30)" s:x="-1" s:y="10" s:pid="in0"><text x="-3" y="-4" class="inputPortLabel">1</text></g><g transform="translate(-1,50)" s:x="-1" s:y="10" s:pid="in0"><text x="-3" y="-4" class="inputPortLabel">2</text></g><g transform="translate(-1,70)" s:x="-1" s:y="10" s:pid="in0"><text x="-3" y="-4" class="inputPortLabel">3</text></g></g><g s:type="split" transform="translate(382.2,215.5)" s:width="5" s:height="40" id="cell_$split$,2,3,4,5,"><rect width="5" height="80" class="splitjoinBody" s:generic="body"/><s:alias val="$_split_"/><g s:x="-1" s:y="20" s:pid="in"/><g transform="translate(5,10)" s:x="5" s:y="10" s:pid="out0"><text x="5" y="-4">0</text></g><g transform="translate(5,30)" s:x="5" s:y="10" s:pid="out0"><text x="5" y="-4">1</text></g><g transform="translate(5,50)" s:x="5" s:y="10" s:pid="out0"><text x="5" y="-4">2</text></g><g transform="translate(5,70)" s:x="5" s:y="10" s:pid="out0"><text x="5" y="-4">3</text></g></g><g s:type="split" transform="translate(382.2,341.5)" s:width="5" s:height="40" id="cell_$split$,6,7,8,9,"><rect width="5" height="80" class="splitjoinBody" s:generic="body"/><s:alias val="$_split_"/><g s:x="-1" s:y="20" s:pid="in"/><g transform="translate(5,10)" s:x="5" s:y="10" s:pid="out0"><text x="5" y="-4">0</text></g><g transform="translate(5,30)" s:x="5" s:y="10" s:pid="out0"><text x="5" y="-4">1</text></g><g transform="translate(5,50)" s:x="5" s:y="10" s:pid="out0"><text x="5" y="-4">2</text></g><g transform="translate(5,70)" s:x="5" s:y="10" s:pid="out0"><text x="5" y="-4">3</text></g></g><line x1="152" x2="172" y1="504.5" y2="504.5" class="net_17 width_1" style="stroke-width: 1"/><line x1="172" x2="172" y1="504.5" y2="174.5" class="net_17 width_1" style="stroke-width: 1"/><circle cx="172" cy="504.5" r="2" style="fill:#000" class="net_17 width_1"/><circle cx="172" cy="174.5" r="2" style="fill:#000" class="net_17 width_1"/><line x1="172" x2="302" y1="174.5" y2="174.5" class="net_17 width_1" style="stroke-width: 1"/><line x1="152" x2="172" y1="504.5" y2="504.5" class="net_17 width_1" style="stroke-width: 1"/><line x1="172" x2="172" y1="504.5" y2="103" class="net_17 width_1" style="stroke-width: 1"/><line x1="172" x2="202" y1="103" y2="103" class="net_17 width_1" style="stroke-width: 1"/><line x1="152" x2="172" y1="504.5" y2="504.5" class="net_17 width_1" style="stroke-width: 1"/><line x1="172" x2="172" y1="504.5" y2="740.5" class="net_17 width_1" style="stroke-width: 1"/><circle cx="172" cy="740.5" r="2" style="fill:#000" class="net_17 width_1"/><line x1="172" x2="202" y1="740.5" y2="740.5" class="net_17 width_1" style="stroke-width: 1"/><line x1="152" x2="172" y1="504.5" y2="504.5" class="net_17 width_1" style="stroke-width: 1"/><line x1="172" x2="172" y1="504.5" y2="1130.5" class="net_17 width_1" style="stroke-width: 1"/><line x1="172" x2="202" y1="1130.5" y2="1130.5" class="net_17 width_1" style="stroke-width: 1"/><line x1="152" x2="407" y1="504.5" y2="504.5" class="net_17 width_1" style="stroke-width: 1"/><line x1="407" x2="407" y1="504.5" y2="473.5" class="net_17 width_1" style="stroke-width: 1"/><line x1="407" x2="526" y1="473.5" y2="473.5" class="net_17 width_1" style="stroke-width: 1"/><line x1="232" x2="252" y1="484.5" y2="484.5" class="net_10 width_1" style="stroke-width: 1"/><line x1="252" x2="252" y1="484.5" y2="189.5" class="net_10 width_1" style="stroke-width: 1"/><circle cx="252" cy="484.5" r="2" style="fill:#000" class="net_10 width_1"/><circle cx="252" cy="189.5" r="2" style="fill:#000" class="net_10 width_1"/><line x1="252" x2="302" y1="189.5" y2="189.5" class="net_10 width_1" style="stroke-width: 1"/><line x1="232" x2="252" y1="484.5" y2="484.5" class="net_10 width_1" style="stroke-width: 1"/><line x1="252" x2="252" y1="484.5" y2="110.5" class="net_10 width_1" style="stroke-width: 1"/><line x1="252" x2="302" y1="110.5" y2="110.5" class="net_10 width_1" style="stroke-width: 1"/><line x1="232" x2="252" y1="484.5" y2="484.5" class="net_10 width_1" style="stroke-width: 1"/><line x1="252" x2="252" y1="484.5" y2="748" class="net_10 width_1" style="stroke-width: 1"/><circle cx="252" cy="748" r="2" style="fill:#000" class="net_10 width_1"/><line x1="252" x2="302" y1="748" y2="748" class="net_10 width_1" style="stroke-width: 1"/><line x1="232" x2="252" y1="484.5" y2="484.5" class="net_10 width_1" style="stroke-width: 1"/><line x1="252" x2="252" y1="484.5" y2="1138" class="net_10 width_1" style="stroke-width: 1"/><line x1="252" x2="302" y1="1138" y2="1138" class="net_10 width_1" style="stroke-width: 1"/><line x1="232" x2="252" y1="484.5" y2="484.5" class="net_10 width_1" style="stroke-width: 1"/><line x1="252" x2="252" y1="484.5" y2="442.5" class="net_10 width_1" style="stroke-width: 1"/><line x1="252" x2="497" y1="442.5" y2="442.5" class="net_10 width_1" style="stroke-width: 1"/><line x1="497" x2="497" y1="442.5" y2="433.5" class="net_10 width_1" style="stroke-width: 1"/><circle cx="252" cy="442.5" r="2" style="fill:#000" class="net_10 width_1"/><line x1="497" x2="526" y1="433.5" y2="433.5" class="net_10 width_1" style="stroke-width: 1"/><line x1="82" x2="102" y1="638" y2="638" class="net_19 width_1" style="stroke-width: 1"/><line x1="102" x2="102" y1="638" y2="88" class="net_19 width_1" style="stroke-width: 1"/><line x1="102" x2="162" y1="88" y2="88" class="net_19 width_1" style="stroke-width: 1"/><line x1="162" x2="162" y1="88" y2="28" class="net_19 width_1" style="stroke-width: 1"/><circle cx="102" cy="638" r="2" style="fill:#000" class="net_19 width_1"/><circle cx="162" cy="88" r="2" style="fill:#000" class="net_19 width_1"/><line x1="162" x2="202" y1="28" y2="28" class="net_19 width_1" style="stroke-width: 1"/><line x1="82" x2="102" y1="638" y2="638" class="net_19 width_1" style="stroke-width: 1"/><line x1="102" x2="102" y1="638" y2="88" class="net_19 width_1" style="stroke-width: 1"/><line x1="102" x2="202" y1="88" y2="88" class="net_19 width_1" style="stroke-width: 1"/><line x1="82" x2="122" y1="638" y2="638" class="net_19 width_1" style="stroke-width: 1"/><line x1="82" x2="102" y1="638" y2="638" class="net_19 width_1" style="stroke-width: 1"/><line x1="102" x2="102" y1="638" y2="733" class="net_19 width_1" style="stroke-width: 1"/><circle cx="102" cy="733" r="2" style="fill:#000" class="net_19 width_1"/><line x1="102" x2="122" y1="733" y2="733" class="net_19 width_1" style="stroke-width: 1"/><line x1="82" x2="102" y1="638" y2="638" class="net_19 width_1" style="stroke-width: 1"/><line x1="102" x2="102" y1="638" y2="1063" class="net_19 width_1" style="stroke-width: 1"/><circle cx="102" cy="1063" r="2" style="fill:#000" class="net_19 width_1"/><line x1="102" x2="122" y1="1063" y2="1063" class="net_19 width_1" style="stroke-width: 1"/><line x1="82" x2="102" y1="638" y2="638" class="net_19 width_1" style="stroke-width: 1"/><line x1="102" x2="102" y1="638" y2="1123" class="net_19 width_1" style="stroke-width: 1"/><line x1="102" x2="122" y1="1123" y2="1123" class="net_19 width_1" style="stroke-width: 1"/><line x1="82" x2="102" y1="638" y2="638" class="net_19 width_1" style="stroke-width: 1"/><line x1="102" x2="102" y1="638" y2="305.5" class="net_19 width_1" style="stroke-width: 1"/><circle cx="102" cy="305.5" r="2" style="fill:#000" class="net_19 width_1"/><line x1="102" x2="526" y1="305.5" y2="305.5" class="net_19 width_1" style="stroke-width: 1"/><line x1="152" x2="192" y1="453.5" y2="453.5" class="net_20 width_1" style="stroke-width: 1"/><line x1="192" x2="192" y1="453.5" y2="43" class="net_20 width_1" style="stroke-width: 1"/><circle cx="192" cy="453.5" r="2" style="fill:#000" class="net_20 width_1"/><line x1="192" x2="202" y1="43" y2="43" class="net_20 width_1" style="stroke-width: 1"/><line x1="152" x2="192" y1="453.5" y2="453.5" class="net_20 width_1" style="stroke-width: 1"/><line x1="192" x2="192" y1="453.5" y2="645.5" class="net_20 width_1" style="stroke-width: 1"/><circle cx="192" cy="645.5" r="2" style="fill:#000" class="net_20 width_1"/><line x1="192" x2="202" y1="645.5" y2="645.5" class="net_20 width_1" style="stroke-width: 1"/><line x1="152" x2="192" y1="453.5" y2="453.5" class="net_20 width_1" style="stroke-width: 1"/><line x1="192" x2="192" y1="453.5" y2="1070.5" class="net_20 width_1" style="stroke-width: 1"/><line x1="192" x2="202" y1="1070.5" y2="1070.5" class="net_20 width_1" style="stroke-width: 1"/><line x1="152" x2="192" y1="453.5" y2="453.5" class="net_20 width_1" style="stroke-width: 1"/><line x1="192" x2="192" y1="453.5" y2="158.5" class="net_20 width_1" style="stroke-width: 1"/><line x1="192" x2="342" y1="158.5" y2="158.5" class="net_20 width_1" style="stroke-width: 1"/><line x1="342" x2="342" y1="158.5" y2="167" class="net_20 width_1" style="stroke-width: 1"/><circle cx="192" cy="158.5" r="2" style="fill:#000" class="net_20 width_1"/><line x1="342" x2="369" y1="167" y2="167" class="net_20 width_1" style="stroke-width: 1"/><line x1="152" x2="526" y1="453.5" y2="453.5" class="net_20 width_1" style="stroke-width: 1"/><line x1="232" x2="302" y1="95.5" y2="95.5" class="net_22 width_1" style="stroke-width: 1"/><line x1="12" x2="32" y1="1055.5" y2="1055.5" class="net_24 width_1" style="stroke-width: 1"/><line x1="32" x2="32" y1="1055.5" y2="567" class="net_24 width_1" style="stroke-width: 1"/><line x1="32" x2="112" y1="567" y2="567" class="net_24 width_1" style="stroke-width: 1"/><line x1="112" x2="112" y1="567" y2="563" class="net_24 width_1" style="stroke-width: 1"/><circle cx="32" cy="1055.5" r="2" style="fill:#000" class="net_24 width_1"/><circle cx="32" cy="567" r="2" style="fill:#000" class="net_24 width_1"/><line x1="112" x2="122" y1="563" y2="563" class="net_24 width_1" style="stroke-width: 1"/><line x1="12" x2="32" y1="1055.5" y2="1055.5" class="net_24 width_1" style="stroke-width: 1"/><line x1="32" x2="32" y1="1055.5" y2="627" class="net_24 width_1" style="stroke-width: 1"/><line x1="32" x2="112" y1="627" y2="627" class="net_24 width_1" style="stroke-width: 1"/><line x1="112" x2="112" y1="627" y2="623" class="net_24 width_1" style="stroke-width: 1"/><circle cx="32" cy="627" r="2" style="fill:#000" class="net_24 width_1"/><line x1="112" x2="122" y1="623" y2="623" class="net_24 width_1" style="stroke-width: 1"/><line x1="12" x2="32" y1="1055.5" y2="1055.5" class="net_24 width_1" style="stroke-width: 1"/><line x1="32" x2="32" y1="1055.5" y2="718" class="net_24 width_1" style="stroke-width: 1"/><circle cx="32" cy="718" r="2" style="fill:#000" class="net_24 width_1"/><line x1="32" x2="122" y1="718" y2="718" class="net_24 width_1" style="stroke-width: 1"/><line x1="12" x2="32" y1="1055.5" y2="1055.5" class="net_24 width_1" style="stroke-width: 1"/><line x1="32" x2="32" y1="1055.5" y2="995.5" class="net_24 width_1" style="stroke-width: 1"/><circle cx="32" cy="995.5" r="2" style="fill:#000" class="net_24 width_1"/><line x1="32" x2="52" y1="995.5" y2="995.5" class="net_24 width_1" style="stroke-width: 1"/><line x1="12" x2="52" y1="1055.5" y2="1055.5" class="net_24 width_1" style="stroke-width: 1"/><line x1="12" x2="32" y1="1055.5" y2="1055.5" class="net_24 width_1" style="stroke-width: 1"/><line x1="32" x2="32" y1="1055.5" y2="1115.5" class="net_24 width_1" style="stroke-width: 1"/><line x1="32" x2="52" y1="1115.5" y2="1115.5" class="net_24 width_1" style="stroke-width: 1"/><line x1="12" x2="32" y1="1055.5" y2="1055.5" class="net_24 width_1" style="stroke-width: 1"/><line x1="32" x2="32" y1="1055.5" y2="136.5" class="net_24 width_1" style="stroke-width: 1"/><line x1="32" x2="437" y1="136.5" y2="136.5" class="net_24 width_1" style="stroke-width: 1"/><line x1="437" x2="437" y1="136.5" y2="127.5" class="net_24 width_1" style="stroke-width: 1"/><line x1="437" x2="526" y1="127.5" y2="127.5" class="net_24 width_1" style="stroke-width: 1"/><line x1="82" x2="122" y1="578" y2="578" class="net_25 width_1" style="stroke-width: 1"/><line x1="82" x2="92" y1="578" y2="578" class="net_25 width_1" style="stroke-width: 1"/><line x1="92" x2="92" y1="578" y2="1003" class="net_25 width_1" style="stroke-width: 1"/><circle cx="92" cy="578" r="2" style="fill:#000" class="net_25 width_1"/><line x1="92" x2="122" y1="1003" y2="1003" class="net_25 width_1" style="stroke-width: 1"/><line x1="82" x2="92" y1="578" y2="578" class="net_25 width_1" style="stroke-width: 1"/><line x1="92" x2="92" y1="578" y2="12" class="net_25 width_1" style="stroke-width: 1"/><line x1="92" x2="242" y1="12" y2="12" class="net_25 width_1" style="stroke-width: 1"/><line x1="242" x2="242" y1="12" y2="20.5" class="net_25 width_1" style="stroke-width: 1"/><line x1="242" x2="304" y1="20.5" y2="20.5" class="net_25 width_1" style="stroke-width: 1"/><line x1="82" x2="92" y1="578" y2="578" class="net_25 width_1" style="stroke-width: 1"/><line x1="92" x2="92" y1="578" y2="204.5" class="net_25 width_1" style="stroke-width: 1"/><line x1="92" x2="487" y1="204.5" y2="204.5" class="net_25 width_1" style="stroke-width: 1"/><line x1="487" x2="487" y1="204.5" y2="285.5" class="net_25 width_1" style="stroke-width: 1"/><circle cx="92" cy="204.5" r="2" style="fill:#000" class="net_25 width_1"/><line x1="487" x2="526" y1="285.5" y2="285.5" class="net_25 width_1" style="stroke-width: 1"/><line x1="152" x2="202" y1="630.5" y2="630.5" class="net_27 width_1" style="stroke-width: 1"/><line x1="152" x2="202" y1="725.5" y2="725.5" class="net_29 width_1" style="stroke-width: 1"/><line x1="232" x2="302" y1="733" y2="733" class="net_30 width_1" style="stroke-width: 1"/><line x1="12" x2="42" y1="1100.5" y2="1100.5" class="net_32 width_1" style="stroke-width: 1"/><line x1="42" x2="42" y1="1100.5" y2="920.5" class="net_32 width_1" style="stroke-width: 1"/><circle cx="42" cy="1100.5" r="2" style="fill:#000" class="net_32 width_1"/><circle cx="42" cy="920.5" r="2" style="fill:#000" class="net_32 width_1"/><line x1="42" x2="52" y1="920.5" y2="920.5" class="net_32 width_1" style="stroke-width: 1"/><line x1="12" x2="42" y1="1100.5" y2="1100.5" class="net_32 width_1" style="stroke-width: 1"/><line x1="42" x2="42" y1="1100.5" y2="980.5" class="net_32 width_1" style="stroke-width: 1"/><circle cx="42" cy="980.5" r="2" style="fill:#000" class="net_32 width_1"/><line x1="42" x2="52" y1="980.5" y2="980.5" class="net_32 width_1" style="stroke-width: 1"/><line x1="12" x2="42" y1="1100.5" y2="1100.5" class="net_32 width_1" style="stroke-width: 1"/><line x1="42" x2="42" y1="1100.5" y2="1040.5" class="net_32 width_1" style="stroke-width: 1"/><circle cx="42" cy="1040.5" r="2" style="fill:#000" class="net_32 width_1"/><line x1="42" x2="52" y1="1040.5" y2="1040.5" class="net_32 width_1" style="stroke-width: 1"/><line x1="12" x2="52" y1="1100.5" y2="1100.5" class="net_32 width_1" style="stroke-width: 1"/><line x1="12" x2="42" y1="1100.5" y2="1100.5" class="net_32 width_1" style="stroke-width: 1"/><line x1="42" x2="42" y1="1100.5" y2="869.5" class="net_32 width_1" style="stroke-width: 1"/><line x1="42" x2="407" y1="869.5" y2="869.5" class="net_32 width_1" style="stroke-width: 1"/><line x1="407" x2="407" y1="869.5" y2="878.5" class="net_32 width_1" style="stroke-width: 1"/><line x1="407" x2="526" y1="878.5" y2="878.5" class="net_32 width_1" style="stroke-width: 1"/><line x1="12" x2="52" y1="935.5" y2="935.5" class="net_33 width_1" style="stroke-width: 1"/><line x1="12" x2="22" y1="935.5" y2="935.5" class="net_33 width_1" style="stroke-width: 1"/><line x1="22" x2="22" y1="935.5" y2="493.5" class="net_33 width_1" style="stroke-width: 1"/><line x1="22" x2="182" y1="493.5" y2="493.5" class="net_33 width_1" style="stroke-width: 1"/><line x1="182" x2="182" y1="493.5" y2="555.5" class="net_33 width_1" style="stroke-width: 1"/><circle cx="22" cy="935.5" r="2" style="fill:#000" class="net_33 width_1"/><circle cx="22" cy="493.5" r="2" style="fill:#000" class="net_33 width_1"/><line x1="182" x2="204" y1="555.5" y2="555.5" class="net_33 width_1" style="stroke-width: 1"/><line x1="12" x2="22" y1="935.5" y2="935.5" class="net_33 width_1" style="stroke-width: 1"/><line x1="22" x2="22" y1="935.5" y2="125.5" class="net_33 width_1" style="stroke-width: 1"/><line x1="22" x2="407" y1="125.5" y2="125.5" class="net_33 width_1" style="stroke-width: 1"/><line x1="407" x2="407" y1="125.5" y2="107.5" class="net_33 width_1" style="stroke-width: 1"/><line x1="407" x2="526" y1="107.5" y2="107.5" class="net_33 width_1" style="stroke-width: 1"/><line x1="82" x2="122" y1="988" y2="988" class="net_35 width_1" style="stroke-width: 1"/><line x1="82" x2="122" y1="1048" y2="1048" class="net_37 width_1" style="stroke-width: 1"/><line x1="152" x2="202" y1="1055.5" y2="1055.5" class="net_38 width_1" style="stroke-width: 1"/><line x1="82" x2="122" y1="1108" y2="1108" class="net_40 width_1" style="stroke-width: 1"/><line x1="152" x2="202" y1="1115.5" y2="1115.5" class="net_41 width_1" style="stroke-width: 1"/><line x1="232" x2="302" y1="1123" y2="1123" class="net_42 width_1" style="stroke-width: 1"/><line x1="332" x2="369" y1="182" y2="182" class="net_18 width_1" style="stroke-width: 1"/><line x1="232" x2="304" y1="35.5" y2="35.5" class="net_21 width_1" style="stroke-width: 1"/><line x1="332" x2="342" y1="28" y2="28" class="net_45 width_1" style="stroke-width: 1"/><line x1="342" x2="342" y1="28" y2="88" class="net_45 width_1" style="stroke-width: 1"/><line x1="342" x2="369" y1="88" y2="88" class="net_45 width_1" style="stroke-width: 1"/><line x1="332" x2="369" y1="103" y2="103" class="net_23 width_1" style="stroke-width: 1"/><line x1="152" x2="204" y1="570.5" y2="570.5" class="net_26 width_1" style="stroke-width: 1"/><line x1="232" x2="292" y1="563" y2="563" class="net_47 width_1" style="stroke-width: 1"/><line x1="292" x2="292" y1="563" y2="623" class="net_47 width_1" style="stroke-width: 1"/><line x1="292" x2="304" y1="623" y2="623" class="net_47 width_1" style="stroke-width: 1"/><line x1="232" x2="304" y1="638" y2="638" class="net_28 width_1" style="stroke-width: 1"/><line x1="332" x2="342" y1="630.5" y2="630.5" class="net_48 width_1" style="stroke-width: 1"/><line x1="342" x2="342" y1="630.5" y2="725.5" class="net_48 width_1" style="stroke-width: 1"/><line x1="342" x2="369" y1="725.5" y2="725.5" class="net_48 width_1" style="stroke-width: 1"/><line x1="332" x2="369" y1="740.5" y2="740.5" class="net_31 width_1" style="stroke-width: 1"/><line x1="82" x2="112" y1="880.5" y2="880.5" class="net_49 width_1" style="stroke-width: 1"/><line x1="112" x2="112" y1="880.5" y2="913" class="net_49 width_1" style="stroke-width: 1"/><circle cx="112" cy="880.5" r="2" style="fill:#000" class="net_49 width_1"/><line x1="112" x2="124" y1="913" y2="913" class="net_49 width_1" style="stroke-width: 1"/><line x1="82" x2="112" y1="880.5" y2="880.5" class="net_49 width_1" style="stroke-width: 1"/><line x1="112" x2="112" y1="880.5" y2="858.5" class="net_49 width_1" style="stroke-width: 1"/><line x1="112" x2="526" y1="858.5" y2="858.5" class="net_49 width_1" style="stroke-width: 1"/><line x1="82" x2="124" y1="928" y2="928" class="net_34 width_1" style="stroke-width: 1"/><line x1="152" x2="162" y1="920.5" y2="920.5" class="net_50 width_1" style="stroke-width: 1"/><line x1="162" x2="162" y1="920.5" y2="980.5" class="net_50 width_1" style="stroke-width: 1"/><line x1="162" x2="204" y1="980.5" y2="980.5" class="net_50 width_1" style="stroke-width: 1"/><line x1="152" x2="204" y1="995.5" y2="995.5" class="net_36 width_1" style="stroke-width: 1"/><line x1="232" x2="242" y1="988" y2="988" class="net_51 width_1" style="stroke-width: 1"/><line x1="242" x2="242" y1="988" y2="1048" class="net_51 width_1" style="stroke-width: 1"/><line x1="242" x2="304" y1="1048" y2="1048" class="net_51 width_1" style="stroke-width: 1"/><line x1="232" x2="304" y1="1063" y2="1063" class="net_39 width_1" style="stroke-width: 1"/><line x1="332" x2="342" y1="1055.5" y2="1055.5" class="net_52 width_1" style="stroke-width: 1"/><line x1="342" x2="342" y1="1055.5" y2="1115.5" class="net_52 width_1" style="stroke-width: 1"/><line x1="342" x2="369" y1="1115.5" y2="1115.5" class="net_52 width_1" style="stroke-width: 1"/><line x1="332" x2="369" y1="1130.5" y2="1130.5" class="net_43 width_1" style="stroke-width: 1"/><line x1="388.2" x2="457" y1="226" y2="226" class="net_2 width_1" style="stroke-width: 1"/><line x1="457" x2="457" y1="226" y2="393.5" class="net_2 width_1" style="stroke-width: 1"/><line x1="457" x2="527" y1="393.5" y2="393.5" class="net_2 width_1" style="stroke-width: 1"/><line x1="388.2" x2="437" y1="352" y2="352" class="net_6 width_1" style="stroke-width: 1"/><line x1="437" x2="437" y1="352" y2="413.5" class="net_6 width_1" style="stroke-width: 1"/><line x1="437" x2="526" y1="413.5" y2="413.5" class="net_6 width_1" style="stroke-width: 1"/><line x1="232" x2="282" y1="848.5" y2="848.5" class="net_11 width_1" style="stroke-width: 1"/><line x1="282" x2="282" y1="848.5" y2="607" class="net_11 width_1" style="stroke-width: 1"/><line x1="282" x2="457" y1="607" y2="607" class="net_11 width_1" style="stroke-width: 1"/><line x1="457" x2="457" y1="607" y2="493.5" class="net_11 width_1" style="stroke-width: 1"/><circle cx="282" cy="848.5" r="2" style="fill:#000" class="net_11 width_1"/><line x1="457" x2="526" y1="493.5" y2="493.5" class="net_11 width_1" style="stroke-width: 1"/><line x1="232" x2="282" y1="848.5" y2="848.5" class="net_11 width_1" style="stroke-width: 1"/><line x1="282" x2="282" y1="848.5" y2="938.5" class="net_11 width_1" style="stroke-width: 1"/><line x1="282" x2="310.8" y1="938.5" y2="938.5" class="net_11 width_1" style="stroke-width: 1"/><line x1="388.2" x2="467" y1="246" y2="246" class="net_3 width_1" style="stroke-width: 1"/><line x1="467" x2="467" y1="246" y2="225.5" class="net_3 width_1" style="stroke-width: 1"/><line x1="467" x2="527" y1="225.5" y2="225.5" class="net_3 width_1" style="stroke-width: 1"/><line x1="388.2" x2="477" y1="372" y2="372" class="net_7 width_1" style="stroke-width: 1"/><line x1="477" x2="477" y1="372" y2="245.5" class="net_7 width_1" style="stroke-width: 1"/><line x1="477" x2="526" y1="245.5" y2="245.5" class="net_7 width_1" style="stroke-width: 1"/><line x1="397" x2="497" y1="174.5" y2="174.5" class="net_44 width_1" style="stroke-width: 1"/><line x1="497" x2="497" y1="174.5" y2="265.5" class="net_44 width_1" style="stroke-width: 1"/><line x1="497" x2="526" y1="265.5" y2="265.5" class="net_44 width_1" style="stroke-width: 1"/><line x1="232" x2="272" y1="685.5" y2="685.5" class="net_12 width_1" style="stroke-width: 1"/><line x1="272" x2="272" y1="685.5" y2="431.5" class="net_12 width_1" style="stroke-width: 1"/><line x1="272" x2="487" y1="431.5" y2="431.5" class="net_12 width_1" style="stroke-width: 1"/><line x1="487" x2="487" y1="431.5" y2="325.5" class="net_12 width_1" style="stroke-width: 1"/><circle cx="272" cy="685.5" r="2" style="fill:#000" class="net_12 width_1"/><line x1="487" x2="526" y1="325.5" y2="325.5" class="net_12 width_1" style="stroke-width: 1"/><line x1="232" x2="272" y1="685.5" y2="685.5" class="net_12 width_1" style="stroke-width: 1"/><line x1="272" x2="272" y1="685.5" y2="958.5" class="net_12 width_1" style="stroke-width: 1"/><line x1="272" x2="310.8" y1="958.5" y2="958.5" class="net_12 width_1" style="stroke-width: 1"/><line x1="388.2" x2="417" y1="266" y2="266" class="net_4 width_1" style="stroke-width: 1"/><line x1="417" x2="417" y1="266" y2="47.5" class="net_4 width_1" style="stroke-width: 1"/><line x1="417" x2="527" y1="47.5" y2="47.5" class="net_4 width_1" style="stroke-width: 1"/><line x1="388.2" x2="427" y1="392" y2="392" class="net_8 width_1" style="stroke-width: 1"/><line x1="427" x2="427" y1="392" y2="67.5" class="net_8 width_1" style="stroke-width: 1"/><line x1="427" x2="526" y1="67.5" y2="67.5" class="net_8 width_1" style="stroke-width: 1"/><line x1="397" x2="437" y1="95.5" y2="95.5" class="net_46 width_1" style="stroke-width: 1"/><line x1="437" x2="437" y1="95.5" y2="87.5" class="net_46 width_1" style="stroke-width: 1"/><line x1="437" x2="526" y1="87.5" y2="87.5" class="net_46 width_1" style="stroke-width: 1"/><line x1="232" x2="242" y1="515.5" y2="515.5" class="net_13 width_1" style="stroke-width: 1"/><line x1="242" x2="242" y1="515.5" y2="147.5" class="net_13 width_1" style="stroke-width: 1"/><circle cx="242" cy="515.5" r="2" style="fill:#000" class="net_13 width_1"/><line x1="242" x2="526" y1="147.5" y2="147.5" class="net_13 width_1" style="stroke-width: 1"/><line x1="232" x2="242" y1="515.5" y2="515.5" class="net_13 width_1" style="stroke-width: 1"/><line x1="242" x2="242" y1="515.5" y2="978.5" class="net_13 width_1" style="stroke-width: 1"/><line x1="242" x2="310.8" y1="978.5" y2="978.5" class="net_13 width_1" style="stroke-width: 1"/><line x1="388.2" x2="447" y1="286" y2="286" class="net_5 width_1" style="stroke-width: 1"/><line x1="447" x2="447" y1="286" y2="798.5" class="net_5 width_1" style="stroke-width: 1"/><line x1="447" x2="527" y1="798.5" y2="798.5" class="net_5 width_1" style="stroke-width: 1"/><line x1="388.2" x2="417" y1="412" y2="412" class="net_9 width_1" style="stroke-width: 1"/><line x1="417" x2="417" y1="412" y2="818.5" class="net_9 width_1" style="stroke-width: 1"/><line x1="417" x2="526" y1="818.5" y2="818.5" class="net_9 width_1" style="stroke-width: 1"/><line x1="397" x2="407" y1="733" y2="733" class="net_16 width_1" style="stroke-width: 1"/><line x1="407" x2="407" y1="733" y2="838.5" class="net_16 width_1" style="stroke-width: 1"/><circle cx="407" cy="733" r="2" style="fill:#000" class="net_16 width_1"/><line x1="407" x2="526" y1="838.5" y2="838.5" class="net_16 width_1" style="stroke-width: 1"/><line x1="397" x2="527" y1="733" y2="733" class="net_16 width_1" style="stroke-width: 1"/><line x1="232" x2="526" y1="898.5" y2="898.5" class="net_14 width_1" style="stroke-width: 1"/><line x1="232" x2="262" y1="898.5" y2="898.5" class="net_14 width_1" style="stroke-width: 1"/><line x1="262" x2="262" y1="898.5" y2="998.5" class="net_14 width_1" style="stroke-width: 1"/><circle cx="262" cy="898.5" r="2" style="fill:#000" class="net_14 width_1"/><line x1="262" x2="310.8" y1="998.5" y2="998.5" class="net_14 width_1" style="stroke-width: 1"/><line x1="317.8" x2="527" y1="968.5" y2="968.5" class="net_11,12,13,14 width_4" style="stroke-width: 2"/><line x1="397" x2="527" y1="1123" y2="1123" class="net_15 width_1" style="stroke-width: 1"/><line x1="232" x2="381.2" y1="256" y2="256" class="net_2,3,4,5 width_4" style="stroke-width: 2"/><line x1="232" x2="381.2" y1="382" y2="382" class="net_6,7,8,9 width_4" style="stroke-width: 2"/><rect x="381" y="963.5" width="16" height="9" class="net_11,12,13,14 width_4 busLabel_4" style="fill: white; stroke: none"/><text x="380" y="971.5" class="net_11,12,13,14 width_4 busLabel_4">/4/</text><rect x="316" y="251" width="16" height="9" class="net_2,3,4,5 width_4 busLabel_4" style="fill: white; stroke: none"/><text x="315" y="259" class="net_2,3,4,5 width_4 busLabel_4">/4/</text><rect x="316" y="377" width="16" height="9" class="net_6,7,8,9 width_4 busLabel_4" style="fill: white; stroke: none"/><text x="315" y="385" class="net_6,7,8,9 width_4 busLabel_4">/4/</text></svg>