<svg xmlns="http://www.w3.org/2000/svg" xmlns:xlink="http://www.w3.org/1999/xlink" xmlns:s="https://github.com/nturley/netlistsvg" width="255" height="199"><style>svg {
  stroke:#000;
  fill:none;
}
text {
  fill:#000;
  stroke:none;
  font-size:10px;
  font-weight: bold;
  font-family: "Courier New", monospace;
}
line {
    stroke-linecap: round;
}
.nodelabel {
  text-anchor: middle;
}
.inputPortLabel {
  text-anchor: end;
}
.splitjoinBody {
  fill:#000;
}</style><g s:type="and" transform="translate(146,27)" s:width="30" s:height="25" id="cell_$and$p:/Code/Verilog/HW1_adder.v:16$2"><s:alias val="$and"/><s:alias val="$logic_and"/><s:alias val="$_AND_"/><path d="M0,0 L0,25 L15,25 A15 12.5 0 0 0 15,0 Z" fill="#eebaff" class="cell_$and$p:/Code/Verilog/HW1_adder.v:16$2"/><g s:x="0" s:y="5" s:pid="A"/><g s:x="0" s:y="20" s:pid="B"/><g s:x="30" s:y="12.5" s:pid="Y"/></g><g s:type="reduce_xor" transform="translate(77,92)" s:width="33" s:height="25" id="cell_$xor$p:/Code/Verilog/HW1_adder.v:15$1"><s:alias val="$xor"/><s:alias val="$reduce_xor"/><s:alias val="$_XOR_"/><path d="M3,0 A30 25 0 0 1 3,25 A30 25 0 0 0 33,12.5 A30 25 0 0 0 3,0" fill="#eebaff" class="cell_$xor$p:/Code/Verilog/HW1_adder.v:15$1"/><path d="M0,0 A30 25 0 0 1 0,25" class="cell_$xor$p:/Code/Verilog/HW1_adder.v:15$1"/><g s:x="2" s:y="5" s:pid="A"/><g s:x="2" s:y="20" s:pid="B"/><g s:x="33" s:y="12.5" s:pid="Y"/></g><g s:type="reduce_xor" transform="translate(145,157)" s:width="33" s:height="25" id="cell_$xor$p:/Code/Verilog/HW1_adder.v:17$3"><s:alias val="$xor"/><s:alias val="$reduce_xor"/><s:alias val="$_XOR_"/><path d="M3,0 A30 25 0 0 1 3,25 A30 25 0 0 0 33,12.5 A30 25 0 0 0 3,0" fill="#eebaff" class="cell_$xor$p:/Code/Verilog/HW1_adder.v:17$3"/><path d="M0,0 A30 25 0 0 1 0,25" class="cell_$xor$p:/Code/Verilog/HW1_adder.v:17$3"/><g s:x="2" s:y="5" s:pid="A"/><g s:x="2" s:y="20" s:pid="B"/><g s:x="33" s:y="12.5" s:pid="Y"/></g><g s:type="inputExt" transform="translate(12,22)" s:width="30" s:height="20" id="cell_a"><text x="15" y="-4" class="nodelabel cell_a" s:attribute="ref">a</text><s:alias val="$_inputExt_"/><path d="M0,0 L0,20 L15,20 L30,10 L15,0 Z" fill="#8bcaff" class="cell_a"/><g s:x="30" s:y="10" s:pid="Y"/></g><g s:type="inputExt" transform="translate(12,102)" s:width="30" s:height="20" id="cell_b"><text x="15" y="-4" class="nodelabel cell_b" s:attribute="ref">b</text><s:alias val="$_inputExt_"/><path d="M0,0 L0,20 L15,20 L30,10 L15,0 Z" fill="#8bcaff" class="cell_b"/><g s:x="30" s:y="10" s:pid="Y"/></g><g s:type="inputExt" transform="translate(80,167)" s:width="30" s:height="20" id="cell_cin"><text x="15" y="-4" class="nodelabel cell_cin" s:attribute="ref">cin</text><s:alias val="$_inputExt_"/><path d="M0,0 L0,20 L15,20 L30,10 L15,0 Z" fill="#8bcaff" class="cell_cin"/><g s:x="30" s:y="10" s:pid="Y"/></g><g s:type="outputExt" transform="translate(213,94.5)" s:width="30" s:height="20" id="cell_p"><text x="15" y="-4" class="nodelabel cell_p" s:attribute="ref">p</text><s:alias val="$_outputExt_"/><path d="M30,0 L30,20 L15,20 L0,10 L15,0 Z" fill="#169300" class="cell_p"/><g s:x="0" s:y="10" s:pid="A"/></g><g s:type="outputExt" transform="translate(213,29.5)" s:width="30" s:height="20" id="cell_g"><text x="15" y="-4" class="nodelabel cell_g" s:attribute="ref">g</text><s:alias val="$_outputExt_"/><path d="M30,0 L30,20 L15,20 L0,10 L15,0 Z" fill="#169300" class="cell_g"/><g s:x="0" s:y="10" s:pid="A"/></g><g s:type="outputExt" transform="translate(213,159.5)" s:width="30" s:height="20" id="cell_sum"><text x="15" y="-4" class="nodelabel cell_sum" s:attribute="ref">sum</text><s:alias val="$_outputExt_"/><path d="M30,0 L30,20 L15,20 L0,10 L15,0 Z" fill="#169300" class="cell_sum"/><g s:x="0" s:y="10" s:pid="A"/></g><line x1="42" x2="146" y1="32" y2="32" class="net_2 width_1" style="stroke-width: 1"/><line x1="42" x2="62" y1="32" y2="32" class="net_2 width_1" style="stroke-width: 1"/><line x1="62" x2="62" y1="32" y2="97" class="net_2 width_1" style="stroke-width: 1"/><circle cx="62" cy="32" r="2" style="fill:#000" class="net_2 width_1"/><line x1="62" x2="79" y1="97" y2="97" class="net_2 width_1" style="stroke-width: 1"/><line x1="42" x2="52" y1="112" y2="112" class="net_3 width_1" style="stroke-width: 1"/><line x1="52" x2="52" y1="112" y2="47" class="net_3 width_1" style="stroke-width: 1"/><circle cx="52" cy="112" r="2" style="fill:#000" class="net_3 width_1"/><line x1="52" x2="146" y1="47" y2="47" class="net_3 width_1" style="stroke-width: 1"/><line x1="42" x2="79" y1="112" y2="112" class="net_3 width_1" style="stroke-width: 1"/><line x1="110" x2="120" y1="104.5" y2="104.5" class="net_5 width_1" style="stroke-width: 1"/><line x1="120" x2="120" y1="104.5" y2="162" class="net_5 width_1" style="stroke-width: 1"/><circle cx="120" cy="104.5" r="2" style="fill:#000" class="net_5 width_1"/><line x1="120" x2="147" y1="162" y2="162" class="net_5 width_1" style="stroke-width: 1"/><line x1="110" x2="213" y1="104.5" y2="104.5" class="net_5 width_1" style="stroke-width: 1"/><line x1="110" x2="147" y1="177" y2="177" class="net_4 width_1" style="stroke-width: 1"/><line x1="176" x2="213" y1="39.5" y2="39.5" class="net_6 width_1" style="stroke-width: 1"/><line x1="178" x2="213" y1="169.5" y2="169.5" class="net_7 width_1" style="stroke-width: 1"/></svg>