<svg xmlns="http://www.w3.org/2000/svg" xmlns:xlink="http://www.w3.org/1999/xlink" xmlns:s="https://github.com/nturley/netlistsvg" width="447" height="145"><style>svg {
  stroke:#000;
  fill:none;
}
text {
  fill:#000;
  stroke:none;
  font-size:10px;
  font-weight: bold;
  font-family: "Courier New", monospace;
}
line {
    stroke-linecap: round;
}
.nodelabel {
  text-anchor: middle;
}
.inputPortLabel {
  text-anchor: end;
}
.splitjoinBody {
  fill:#000;
}</style><g s:type="and" transform="translate(274,27)" s:width="30" s:height="25" id="cell_$and$p:/Code/Verilog/HW2/HW2_SRLatch.v:15$1"><s:alias val="$and"/><s:alias val="$logic_and"/><s:alias val="$_AND_"/><path d="M0,0 L0,25 L15,25 A15 12.5 0 0 0 15,0 Z" fill="#eebaff" class="cell_$and$p:/Code/Verilog/HW2/HW2_SRLatch.v:15$1"/><g s:x="0" s:y="5" s:pid="A"/><g s:x="0" s:y="20" s:pid="B"/><g s:x="30" s:y="12.5" s:pid="Y"/></g><g s:type="and" transform="translate(143,77)" s:width="30" s:height="25" id="cell_$and$p:/Code/Verilog/HW2/HW2_SRLatch.v:16$3"><s:alias val="$and"/><s:alias val="$logic_and"/><s:alias val="$_AND_"/><path d="M0,0 L0,25 L15,25 A15 12.5 0 0 0 15,0 Z" fill="#eebaff" class="cell_$and$p:/Code/Verilog/HW2/HW2_SRLatch.v:16$3"/><g s:x="0" s:y="5" s:pid="A"/><g s:x="0" s:y="20" s:pid="B"/><g s:x="30" s:y="12.5" s:pid="Y"/></g><g s:type="not" transform="translate(209,22)" s:width="30" s:height="20" id="cell_$not$p:/Code/Verilog/HW2/HW2_SRLatch.v:12$5"><s:alias val="$_NOT_"/><s:alias val="$not"/><s:alias val="$logic_not"/><path d="M0,0 L0,20 L20,10 Z" fill="#eebaff" class="cell_$not$p:/Code/Verilog/HW2/HW2_SRLatch.v:12$5"/><circle cx="24" cy="10" r="3" fill="#eebaff" class="cell_$not$p:/Code/Verilog/HW2/HW2_SRLatch.v:12$5"/><g s:x="-1" s:y="10" s:pid="A"/><g s:x="27" s:y="10" s:pid="Y"/></g><g s:type="not" transform="translate(78,72)" s:width="30" s:height="20" id="cell_$not$p:/Code/Verilog/HW2/HW2_SRLatch.v:13$6"><s:alias val="$_NOT_"/><s:alias val="$not"/><s:alias val="$logic_not"/><path d="M0,0 L0,20 L20,10 Z" fill="#eebaff" class="cell_$not$p:/Code/Verilog/HW2/HW2_SRLatch.v:13$6"/><circle cx="24" cy="10" r="3" fill="#eebaff" class="cell_$not$p:/Code/Verilog/HW2/HW2_SRLatch.v:13$6"/><g s:x="-1" s:y="10" s:pid="A"/><g s:x="27" s:y="10" s:pid="Y"/></g><g s:type="not" transform="translate(340,29.5)" s:width="30" s:height="20" id="cell_$not$p:/Code/Verilog/HW2/HW2_SRLatch.v:15$2"><s:alias val="$_NOT_"/><s:alias val="$not"/><s:alias val="$logic_not"/><path d="M0,0 L0,20 L20,10 Z" fill="#eebaff" class="cell_$not$p:/Code/Verilog/HW2/HW2_SRLatch.v:15$2"/><circle cx="24" cy="10" r="3" fill="#eebaff" class="cell_$not$p:/Code/Verilog/HW2/HW2_SRLatch.v:15$2"/><g s:x="-1" s:y="10" s:pid="A"/><g s:x="27" s:y="10" s:pid="Y"/></g><g s:type="not" transform="translate(209,79.5)" s:width="30" s:height="20" id="cell_$not$p:/Code/Verilog/HW2/HW2_SRLatch.v:16$4"><s:alias val="$_NOT_"/><s:alias val="$not"/><s:alias val="$logic_not"/><path d="M0,0 L0,20 L20,10 Z" fill="#eebaff" class="cell_$not$p:/Code/Verilog/HW2/HW2_SRLatch.v:16$4"/><circle cx="24" cy="10" r="3" fill="#eebaff" class="cell_$not$p:/Code/Verilog/HW2/HW2_SRLatch.v:16$4"/><g s:x="-1" s:y="10" s:pid="A"/><g s:x="27" s:y="10" s:pid="Y"/></g><g s:type="inputExt" transform="translate(143,22)" s:width="30" s:height="20" id="cell_S"><text x="15" y="-4" class="nodelabel cell_S" s:attribute="ref">S</text><s:alias val="$_inputExt_"/><path d="M0,0 L0,20 L15,20 L30,10 L15,0 Z" fill="#8bcaff" class="cell_S"/><g s:x="30" s:y="10" s:pid="Y"/></g><g s:type="inputExt" transform="translate(12,72)" s:width="30" s:height="20" id="cell_R"><text x="15" y="-4" class="nodelabel cell_R" s:attribute="ref">R</text><s:alias val="$_inputExt_"/><path d="M0,0 L0,20 L15,20 L30,10 L15,0 Z" fill="#8bcaff" class="cell_R"/><g s:x="30" s:y="10" s:pid="Y"/></g><g s:type="outputExt" transform="translate(405,29.5)" s:width="30" s:height="20" id="cell_Q"><text x="15" y="-4" class="nodelabel cell_Q" s:attribute="ref">Q</text><s:alias val="$_outputExt_"/><path d="M30,0 L30,20 L15,20 L0,10 L15,0 Z" fill="#169300" class="cell_Q"/><g s:x="0" s:y="10" s:pid="A"/></g><g s:type="outputExt" transform="translate(405,113)" s:width="30" s:height="20" id="cell_nQ"><text x="15" y="-4" class="nodelabel cell_nQ" s:attribute="ref">nQ</text><s:alias val="$_outputExt_"/><path d="M30,0 L30,20 L15,20 L0,10 L15,0 Z" fill="#169300" class="cell_nQ"/><g s:x="0" s:y="10" s:pid="A"/></g><line x1="236" x2="274" y1="32" y2="32" class="net_6 width_1" style="stroke-width: 1"/><line x1="236" x2="249" y1="89.5" y2="89.5" class="net_5 width_1" style="stroke-width: 1"/><line x1="249" x2="249" y1="89.5" y2="47" class="net_5 width_1" style="stroke-width: 1"/><circle cx="249" cy="89.5" r="2" style="fill:#000" class="net_5 width_1"/><line x1="249" x2="274" y1="47" y2="47" class="net_5 width_1" style="stroke-width: 1"/><line x1="236" x2="249" y1="89.5" y2="89.5" class="net_5 width_1" style="stroke-width: 1"/><line x1="249" x2="249" y1="89.5" y2="123" class="net_5 width_1" style="stroke-width: 1"/><line x1="249" x2="405" y1="123" y2="123" class="net_5 width_1" style="stroke-width: 1"/><line x1="105" x2="143" y1="82" y2="82" class="net_8 width_1" style="stroke-width: 1"/><line x1="367" x2="380" y1="39.5" y2="39.5" class="net_4 width_1" style="stroke-width: 1"/><line x1="380" x2="380" y1="39.5" y2="112" class="net_4 width_1" style="stroke-width: 1"/><line x1="380" x2="118" y1="112" y2="112" class="net_4 width_1" style="stroke-width: 1"/><line x1="118" x2="118" y1="112" y2="97" class="net_4 width_1" style="stroke-width: 1"/><circle cx="380" cy="39.5" r="2" style="fill:#000" class="net_4 width_1"/><line x1="118" x2="143" y1="97" y2="97" class="net_4 width_1" style="stroke-width: 1"/><line x1="367" x2="405" y1="39.5" y2="39.5" class="net_4 width_1" style="stroke-width: 1"/><line x1="173" x2="208" y1="32" y2="32" class="net_2 width_1" style="stroke-width: 1"/><line x1="42" x2="77" y1="82" y2="82" class="net_3 width_1" style="stroke-width: 1"/><line x1="304" x2="339" y1="39.5" y2="39.5" class="net_7 width_1" style="stroke-width: 1"/><line x1="173" x2="208" y1="89.5" y2="89.5" class="net_9 width_1" style="stroke-width: 1"/></svg>