<svg xmlns="http://www.w3.org/2000/svg" xmlns:xlink="http://www.w3.org/1999/xlink" xmlns:s="https://github.com/nturley/netlistsvg" width="279" height="316.5"><style>svg {
  stroke:#000;
  fill:none;
}
text {
  fill:#000;
  stroke:none;
  font-size:10px;
  font-weight: bold;
  font-family: "Courier New", monospace;
}
line {
    stroke-linecap: round;
}
.nodelabel {
  text-anchor: middle;
}
.inputPortLabel {
  text-anchor: end;
}
.splitjoinBody {
  fill:#000;
}</style><g s:type="eq" transform="translate(118.66666666666667,209.5)" s:width="25" s:height="25" id="cell_$eq$p:/Code/Verilog/HW2/HW2_demux.v:10$3"><s:alias val="$eq"/><circle r="12.5" cx="12.5" cy="12.5" fill="#ffc9c3" class="cell_$eq$p:/Code/Verilog/HW2/HW2_demux.v:10$3"/><line x1="7.5" x2="17.5" y1="10" y2="10" class="cell_$eq$p:/Code/Verilog/HW2/HW2_demux.v:10$3"/><line x1="7.5" x2="17.5" y1="15" y2="15" class="cell_$eq$p:/Code/Verilog/HW2/HW2_demux.v:10$3"/><g s:x="2" s:y="5" s:pid="A"/><g s:x="2" s:y="20" s:pid="B"/><g s:x="25" s:y="12.5" s:pid="Y"/></g><g s:type="eq" transform="translate(118.66666666666667,274.5)" s:width="25" s:height="25" id="cell_$eq$p:/Code/Verilog/HW2/HW2_demux.v:11$5"><s:alias val="$eq"/><circle r="12.5" cx="12.5" cy="12.5" fill="#ffc9c3" class="cell_$eq$p:/Code/Verilog/HW2/HW2_demux.v:11$5"/><line x1="7.5" x2="17.5" y1="10" y2="10" class="cell_$eq$p:/Code/Verilog/HW2/HW2_demux.v:11$5"/><line x1="7.5" x2="17.5" y1="15" y2="15" class="cell_$eq$p:/Code/Verilog/HW2/HW2_demux.v:11$5"/><g s:x="2" s:y="5" s:pid="A"/><g s:x="2" s:y="20" s:pid="B"/><g s:x="25" s:y="12.5" s:pid="Y"/></g><g s:type="eq" transform="translate(118.66666666666667,49.5)" s:width="25" s:height="25" id="cell_$eq$p:/Code/Verilog/HW2/HW2_demux.v:9$1"><s:alias val="$eq"/><circle r="12.5" cx="12.5" cy="12.5" fill="#ffc9c3" class="cell_$eq$p:/Code/Verilog/HW2/HW2_demux.v:9$1"/><line x1="7.5" x2="17.5" y1="10" y2="10" class="cell_$eq$p:/Code/Verilog/HW2/HW2_demux.v:9$1"/><line x1="7.5" x2="17.5" y1="15" y2="15" class="cell_$eq$p:/Code/Verilog/HW2/HW2_demux.v:9$1"/><g s:x="2" s:y="5" s:pid="A"/><g s:x="2" s:y="20" s:pid="B"/><g s:x="25" s:y="12.5" s:pid="Y"/></g><g s:type="mux" transform="translate(182,134.5)" s:width="20" s:height="40" id="cell_$ternary$p:/Code/Verilog/HW2/HW2_demux.v:10$4"><s:alias val="$pmux"/><s:alias val="$mux"/><s:alias val="$_MUX_"/><path d="M0,0 L20,10 L20,30 L0,40 Z" fill="#ffffff" class="cell_$ternary$p:/Code/Verilog/HW2/HW2_demux.v:10$4"/><text x="5" y="32" class="nodelabel cell_$ternary$p:/Code/Verilog/HW2/HW2_demux.v:10$4" s:attribute="">1</text><text x="5" y="13" class="nodelabel cell_$ternary$p:/Code/Verilog/HW2/HW2_demux.v:10$4" s:attribute="">0</text><g s:x="0" s:y="10" s:pid="A"/><g s:x="0" s:y="30" s:pid="B"/><g s:x="10" s:y="35" s:pid="S"/><g s:x="20" s:y="20" s:pid="Y"/></g><g s:type="mux" transform="translate(182,232)" s:width="20" s:height="40" id="cell_$ternary$p:/Code/Verilog/HW2/HW2_demux.v:11$6"><s:alias val="$pmux"/><s:alias val="$mux"/><s:alias val="$_MUX_"/><path d="M0,0 L20,10 L20,30 L0,40 Z" fill="#ffffff" class="cell_$ternary$p:/Code/Verilog/HW2/HW2_demux.v:11$6"/><text x="5" y="32" class="nodelabel cell_$ternary$p:/Code/Verilog/HW2/HW2_demux.v:11$6" s:attribute="">1</text><text x="5" y="13" class="nodelabel cell_$ternary$p:/Code/Verilog/HW2/HW2_demux.v:11$6" s:attribute="">0</text><g s:x="0" s:y="10" s:pid="A"/><g s:x="0" s:y="30" s:pid="B"/><g s:x="10" s:y="35" s:pid="S"/><g s:x="20" s:y="20" s:pid="Y"/></g><g s:type="mux" transform="translate(182,12)" s:width="20" s:height="40" id="cell_$ternary$p:/Code/Verilog/HW2/HW2_demux.v:9$2"><s:alias val="$pmux"/><s:alias val="$mux"/><s:alias val="$_MUX_"/><path d="M0,0 L20,10 L20,30 L0,40 Z" fill="#ffffff" class="cell_$ternary$p:/Code/Verilog/HW2/HW2_demux.v:9$2"/><text x="5" y="32" class="nodelabel cell_$ternary$p:/Code/Verilog/HW2/HW2_demux.v:9$2" s:attribute="">1</text><text x="5" y="13" class="nodelabel cell_$ternary$p:/Code/Verilog/HW2/HW2_demux.v:9$2" s:attribute="">0</text><g s:x="0" s:y="10" s:pid="A"/><g s:x="0" s:y="30" s:pid="B"/><g s:x="10" s:y="35" s:pid="S"/><g s:x="20" s:y="20" s:pid="Y"/></g><g s:type="inputExt" transform="translate(117,154.5)" s:width="30" s:height="20" id="cell_A"><text x="15" y="-4" class="nodelabel cell_A" s:attribute="ref">A</text><s:alias val="$_inputExt_"/><path d="M0,0 L0,20 L15,20 L30,10 L15,0 Z" fill="#8bcaff" class="cell_A"/><g s:x="30" s:y="10" s:pid="Y"/></g><g s:type="inputExt" transform="translate(12,154.5)" s:width="30" s:height="20" id="cell_S"><text x="15" y="-4" class="nodelabel cell_S" s:attribute="ref">S</text><s:alias val="$_inputExt_"/><path d="M0,0 L0,20 L15,20 L30,10 L15,0 Z" fill="#8bcaff" class="cell_S"/><g s:x="30" s:y="10" s:pid="Y"/></g><g s:type="outputExt" transform="translate(237,22)" s:width="30" s:height="20" id="cell_X"><text x="15" y="-4" class="nodelabel cell_X" s:attribute="ref">X</text><s:alias val="$_outputExt_"/><path d="M30,0 L30,20 L15,20 L0,10 L15,0 Z" fill="#169300" class="cell_X"/><g s:x="0" s:y="10" s:pid="A"/></g><g s:type="outputExt" transform="translate(237,144.5)" s:width="30" s:height="20" id="cell_Y"><text x="15" y="-4" class="nodelabel cell_Y" s:attribute="ref">Y</text><s:alias val="$_outputExt_"/><path d="M30,0 L30,20 L15,20 L0,10 L15,0 Z" fill="#169300" class="cell_Y"/><g s:x="0" s:y="10" s:pid="A"/></g><g s:type="outputExt" transform="translate(237,242)" s:width="30" s:height="20" id="cell_Z"><text x="15" y="-4" class="nodelabel cell_Z" s:attribute="ref">Z</text><s:alias val="$_outputExt_"/><path d="M30,0 L30,20 L15,20 L0,10 L15,0 Z" fill="#169300" class="cell_Z"/><g s:x="0" s:y="10" s:pid="A"/></g><g s:type="constant" transform="translate(12,219.5)" s:width="30" s:height="20" id="cell_10"><text x="15" y="-4" class="nodelabel cell_10" s:attribute="ref">10</text><s:alias val="$_constant_"/><rect width="30" height="20" fill="#745bff" class="cell_10"/><g s:x="31" s:y="10" s:pid="Y"/></g><g s:type="constant" transform="translate(12,284.5)" s:width="30" s:height="20" id="cell_11"><text x="15" y="-4" class="nodelabel cell_11" s:attribute="ref">11</text><s:alias val="$_constant_"/><rect width="30" height="20" fill="#745bff" class="cell_11"/><g s:x="31" s:y="10" s:pid="Y"/></g><g s:type="constant" transform="translate(12,24.5)" s:width="30" s:height="20" id="cell_01"><text x="15" y="-4" class="nodelabel cell_01" s:attribute="ref">01</text><s:alias val="$_constant_"/><rect width="30" height="20" fill="#745bff" class="cell_01"/><g s:x="31" s:y="10" s:pid="Y"/></g><line x1="42" x2="102" y1="164.5" y2="164.5" class="net_3,4 width_2" style="stroke-width: 2"/><line x1="102" x2="102" y1="164.5" y2="214.5" class="net_3,4 width_2" style="stroke-width: 2"/><line x1="102" x2="120.66666666666667" y1="214.5" y2="214.5" class="net_3,4 width_2" style="stroke-width: 2"/><line x1="42" x2="53" y1="164.5" y2="164.5" class="net_3,4 width_2" style="stroke-width: 2"/><line x1="53" x2="53" y1="164.5" y2="209.5" class="net_3,4 width_2" style="stroke-width: 2"/><line x1="53" x2="92" y1="209.5" y2="209.5" class="net_3,4 width_2" style="stroke-width: 2"/><line x1="92" x2="92" y1="209.5" y2="279.5" class="net_3,4 width_2" style="stroke-width: 2"/><circle cx="53" cy="164.5" r="3" style="fill:#000" class="net_3,4 width_2"/><line x1="92" x2="120.66666666666667" y1="279.5" y2="279.5" class="net_3,4 width_2" style="stroke-width: 2"/><line x1="42" x2="53" y1="164.5" y2="164.5" class="net_3,4 width_2" style="stroke-width: 2"/><line x1="53" x2="53" y1="164.5" y2="54.5" class="net_3,4 width_2" style="stroke-width: 2"/><line x1="53" x2="120.66666666666667" y1="54.5" y2="54.5" class="net_3,4 width_2" style="stroke-width: 2"/><line x1="43" x2="120.66666666666667" y1="229.5" y2="229.5" class="net_11,12 width_2" style="stroke-width: 2"/><line x1="43" x2="120.66666666666667" y1="294.5" y2="294.5" class="net_13,14 width_2" style="stroke-width: 2"/><line x1="43" x2="92" y1="34.5" y2="34.5" class="net_15,16 width_2" style="stroke-width: 2"/><line x1="92" x2="92" y1="34.5" y2="69.5" class="net_15,16 width_2" style="stroke-width: 2"/><line x1="92" x2="120.66666666666667" y1="69.5" y2="69.5" class="net_15,16 width_2" style="stroke-width: 2"/><line x1="147" x2="167" y1="109.5" y2="109.5" class="net_z width_1" style="stroke-width: 1"/><line x1="167" x2="167" y1="109.5" y2="144.5" class="net_z width_1" style="stroke-width: 1"/><circle cx="167" cy="109.5" r="2" style="fill:#000" class="net_z width_1"/><circle cx="167" cy="144.5" r="2" style="fill:#000" class="net_z width_1"/><line x1="167" x2="182" y1="144.5" y2="144.5" class="net_z width_1" style="stroke-width: 1"/><line x1="147" x2="167" y1="109.5" y2="109.5" class="net_z width_1" style="stroke-width: 1"/><line x1="167" x2="167" y1="109.5" y2="242" class="net_z width_1" style="stroke-width: 1"/><line x1="167" x2="182" y1="242" y2="242" class="net_z width_1" style="stroke-width: 1"/><line x1="147" x2="167" y1="109.5" y2="109.5" class="net_z width_1" style="stroke-width: 1"/><line x1="167" x2="167" y1="109.5" y2="22" class="net_z width_1" style="stroke-width: 1"/><line x1="167" x2="182" y1="22" y2="22" class="net_z width_1" style="stroke-width: 1"/><line x1="147" x2="182" y1="164.5" y2="164.5" class="net_2 width_1" style="stroke-width: 1"/><line x1="147" x2="157" y1="164.5" y2="164.5" class="net_2 width_1" style="stroke-width: 1"/><line x1="157" x2="157" y1="164.5" y2="262" class="net_2 width_1" style="stroke-width: 1"/><circle cx="157" cy="164.5" r="2" style="fill:#000" class="net_2 width_1"/><line x1="157" x2="182" y1="262" y2="262" class="net_2 width_1" style="stroke-width: 1"/><line x1="147" x2="157" y1="164.5" y2="164.5" class="net_2 width_1" style="stroke-width: 1"/><line x1="157" x2="157" y1="164.5" y2="42" class="net_2 width_1" style="stroke-width: 1"/><line x1="157" x2="182" y1="42" y2="42" class="net_2 width_1" style="stroke-width: 1"/><line x1="143.66666666666669" x2="192" y1="222" y2="222" class="net_8 width_1" style="stroke-width: 1"/><line x1="192" x2="192" y1="222" y2="169.5" class="net_8 width_1" style="stroke-width: 1"/><line x1="143.66666666666669" x2="192" y1="287" y2="287" class="net_9 width_1" style="stroke-width: 1"/><line x1="192" x2="192" y1="287" y2="267" class="net_9 width_1" style="stroke-width: 1"/><line x1="143.66666666666669" x2="192" y1="62" y2="62" class="net_10 width_1" style="stroke-width: 1"/><line x1="192" x2="192" y1="62" y2="47" class="net_10 width_1" style="stroke-width: 1"/><line x1="202" x2="237" y1="32" y2="32" class="net_5 width_1" style="stroke-width: 1"/><line x1="202" x2="237" y1="154.5" y2="154.5" class="net_6 width_1" style="stroke-width: 1"/><line x1="202" x2="237" y1="252" y2="252" class="net_7 width_1" style="stroke-width: 1"/><rect x="79" y="49.5" width="16" height="9" class="net_3,4 width_2 busLabel_2" style="fill: white; stroke: none"/><text x="78" y="57.5" class="net_3,4 width_2 busLabel_2">/2/</text><rect x="79" y="49.5" width="16" height="9" class="net_3,4 width_2 busLabel_2" style="fill: white; stroke: none"/><text x="78" y="57.5" class="net_3,4 width_2 busLabel_2">/2/</text><rect x="79" y="49.5" width="16" height="9" class="net_3,4 width_2 busLabel_2" style="fill: white; stroke: none"/><text x="78" y="57.5" class="net_3,4 width_2 busLabel_2">/2/</text><rect x="79" y="224.5" width="16" height="9" class="net_11,12 width_2 busLabel_2" style="fill: white; stroke: none"/><text x="78" y="232.5" class="net_11,12 width_2 busLabel_2">/2/</text><rect x="79" y="289.5" width="16" height="9" class="net_13,14 width_2 busLabel_2" style="fill: white; stroke: none"/><text x="78" y="297.5" class="net_13,14 width_2 busLabel_2">/2/</text><rect x="79" y="29.5" width="16" height="9" class="net_15,16 width_2 busLabel_2" style="fill: white; stroke: none"/><text x="78" y="37.5" class="net_15,16 width_2 busLabel_2">/2/</text></svg>