<svg xmlns="http://www.w3.org/2000/svg" xmlns:xlink="http://www.w3.org/1999/xlink" xmlns:s="https://github.com/nturley/netlistsvg" width="244" height="415"><style>svg {
  stroke:#000;
  fill:none;
}
text {
  fill:#000;
  stroke:none;
  font-size:10px;
  font-weight: bold;
  font-family: "Courier New", monospace;
}
line {
    stroke-linecap: round;
}
.nodelabel {
  text-anchor: middle;
}
.inputPortLabel {
  text-anchor: end;
}
.splitjoinBody {
  fill:#000;
}</style><g s:type="not" transform="translate(78,108.5)" s:width="30" s:height="20" id="cell_$not$p:/Code/Verilog/HW2/HW2_DFF.v:11$1"><s:alias val="$_NOT_"/><s:alias val="$not"/><s:alias val="$logic_not"/><path d="M0,0 L0,20 L20,10 Z" fill="#eebaff" class="cell_$not$p:/Code/Verilog/HW2/HW2_DFF.v:11$1"/><circle cx="24" cy="10" r="3" fill="#eebaff" class="cell_$not$p:/Code/Verilog/HW2/HW2_DFF.v:11$1"/><g s:x="-1" s:y="10" s:pid="A"/><g s:x="27" s:y="10" s:pid="Y"/></g><g s:type="not" transform="translate(78,250.5)" s:width="30" s:height="20" id="cell_$not$p:/Code/Verilog/HW2/HW2_DFF.v:18$2"><s:alias val="$_NOT_"/><s:alias val="$not"/><s:alias val="$logic_not"/><path d="M0,0 L0,20 L20,10 Z" fill="#eebaff" class="cell_$not$p:/Code/Verilog/HW2/HW2_DFF.v:18$2"/><circle cx="24" cy="10" r="3" fill="#eebaff" class="cell_$not$p:/Code/Verilog/HW2/HW2_DFF.v:18$2"/><g s:x="-1" s:y="10" s:pid="A"/><g s:x="27" s:y="10" s:pid="Y"/></g><g s:type="generic" transform="translate(202,22)" s:width="30" s:height="40" id="cell_m_D"><text x="15" y="-4" class="nodelabel cell_m_D" s:attribute="ref">part_DLatch</text><rect width="30" height="100" s:generic="body" fill="#ffae46" rx="0" class="cell_m_D"/><g transform="translate(0,10)" s:x="0" s:y="10" s:pid="in0" id="port_m_D~D"><text x="-3" y="-4" class="inputPortLabel cell_m_D">D</text></g><g transform="translate(0,30)" s:x="0" s:y="10" s:pid="in0" id="port_m_D~G"><text x="-3" y="-4" class="inputPortLabel cell_m_D">G</text></g><g transform="translate(0,50)" s:x="0" s:y="10" s:pid="in0" id="port_m_D~Q"><text x="-3" y="-4" class="inputPortLabel cell_m_D">Q</text></g><g transform="translate(0,70)" s:x="0" s:y="10" s:pid="in0" id="port_m_D~nD"><text x="-3" y="-4" class="inputPortLabel cell_m_D">nD</text></g><g transform="translate(0,90)" s:x="0" s:y="10" s:pid="in0" id="port_m_D~nQ"><text x="-3" y="-4" class="inputPortLabel cell_m_D">nQ</text></g></g><g s:type="generic" transform="translate(202,170)" s:width="30" s:height="40" id="cell_s_D"><text x="15" y="-4" class="nodelabel cell_s_D" s:attribute="ref">part_DLatch</text><rect width="30" height="100" s:generic="body" fill="#ffae46" rx="0" class="cell_s_D"/><g transform="translate(0,10)" s:x="0" s:y="10" s:pid="in0" id="port_s_D~D"><text x="-3" y="-4" class="inputPortLabel cell_s_D">D</text></g><g transform="translate(0,30)" s:x="0" s:y="10" s:pid="in0" id="port_s_D~G"><text x="-3" y="-4" class="inputPortLabel cell_s_D">G</text></g><g transform="translate(0,50)" s:x="0" s:y="10" s:pid="in0" id="port_s_D~Q"><text x="-3" y="-4" class="inputPortLabel cell_s_D">Q</text></g><g transform="translate(0,70)" s:x="0" s:y="10" s:pid="in0" id="port_s_D~nD"><text x="-3" y="-4" class="inputPortLabel cell_s_D">nD</text></g><g transform="translate(0,90)" s:x="0" s:y="10" s:pid="in0" id="port_s_D~nQ"><text x="-3" y="-4" class="inputPortLabel cell_s_D">nQ</text></g></g><g s:type="inputExt" transform="translate(12,22.5)" s:width="30" s:height="20" id="cell_D"><text x="15" y="-4" class="nodelabel cell_D" s:attribute="ref">D</text><s:alias val="$_inputExt_"/><path d="M0,0 L0,20 L15,20 L30,10 L15,0 Z" fill="#8bcaff" class="cell_D"/><g s:x="30" s:y="10" s:pid="Y"/></g><g s:type="inputExt" transform="translate(12,87.5)" s:width="30" s:height="20" id="cell_CLK"><text x="15" y="-4" class="nodelabel cell_CLK" s:attribute="ref">CLK</text><s:alias val="$_inputExt_"/><path d="M0,0 L0,20 L15,20 L30,10 L15,0 Z" fill="#8bcaff" class="cell_CLK"/><g s:x="30" s:y="10" s:pid="Y"/></g><g s:type="outputExt" transform="translate(202,318)" s:width="30" s:height="20" id="cell_Q"><text x="15" y="-4" class="nodelabel cell_Q" s:attribute="ref">Q</text><s:alias val="$_outputExt_"/><path d="M30,0 L30,20 L15,20 L0,10 L15,0 Z" fill="#169300" class="cell_Q"/><g s:x="0" s:y="10" s:pid="A"/></g><g s:type="outputExt" transform="translate(202,383)" s:width="30" s:height="20" id="cell_nQ"><text x="15" y="-4" class="nodelabel cell_nQ" s:attribute="ref">nQ</text><s:alias val="$_outputExt_"/><path d="M30,0 L30,20 L15,20 L0,10 L15,0 Z" fill="#169300" class="cell_nQ"/><g s:x="0" s:y="10" s:pid="A"/></g><line x1="42" x2="62" y1="32.5" y2="32.5" class="net_2 width_1" style="stroke-width: 1"/><line x1="62" x2="62" y1="32.5" y2="118.5" class="net_2 width_1" style="stroke-width: 1"/><circle cx="62" cy="32.5" r="2" style="fill:#000" class="net_2 width_1"/><line x1="62" x2="77" y1="118.5" y2="118.5" class="net_2 width_1" style="stroke-width: 1"/><line x1="42" x2="202" y1="32.5" y2="32.5" class="net_2 width_1" style="stroke-width: 1"/><line x1="42" x2="52" y1="97.5" y2="97.5" class="net_3 width_1" style="stroke-width: 1"/><line x1="52" x2="52" y1="97.5" y2="260.5" class="net_3 width_1" style="stroke-width: 1"/><circle cx="52" cy="97.5" r="2" style="fill:#000" class="net_3 width_1"/><line x1="52" x2="77" y1="260.5" y2="260.5" class="net_3 width_1" style="stroke-width: 1"/><line x1="42" x2="118" y1="97.5" y2="97.5" class="net_3 width_1" style="stroke-width: 1"/><line x1="118" x2="118" y1="97.5" y2="52.5" class="net_3 width_1" style="stroke-width: 1"/><line x1="118" x2="201" y1="52.5" y2="52.5" class="net_3 width_1" style="stroke-width: 1"/><line x1="108" x2="128" y1="180.5" y2="180.5" class="net_8 width_1" style="stroke-width: 1"/><line x1="128" x2="128" y1="180.5" y2="72.5" class="net_8 width_1" style="stroke-width: 1"/><circle cx="128" cy="180.5" r="2" style="fill:#000" class="net_8 width_1"/><line x1="128" x2="201" y1="72.5" y2="72.5" class="net_8 width_1" style="stroke-width: 1"/><line x1="108" x2="202" y1="180.5" y2="180.5" class="net_8 width_1" style="stroke-width: 1"/><line x1="105" x2="138" y1="118.5" y2="118.5" class="net_6 width_1" style="stroke-width: 1"/><line x1="138" x2="138" y1="118.5" y2="92.5" class="net_6 width_1" style="stroke-width: 1"/><line x1="138" x2="201" y1="92.5" y2="92.5" class="net_6 width_1" style="stroke-width: 1"/><line x1="108" x2="148" y1="215.5" y2="215.5" class="net_9 width_1" style="stroke-width: 1"/><line x1="148" x2="148" y1="215.5" y2="112.5" class="net_9 width_1" style="stroke-width: 1"/><circle cx="148" cy="215.5" r="2" style="fill:#000" class="net_9 width_1"/><line x1="148" x2="201" y1="112.5" y2="112.5" class="net_9 width_1" style="stroke-width: 1"/><line x1="108" x2="148" y1="215.5" y2="215.5" class="net_9 width_1" style="stroke-width: 1"/><line x1="148" x2="148" y1="215.5" y2="240.5" class="net_9 width_1" style="stroke-width: 1"/><line x1="148" x2="201" y1="240.5" y2="240.5" class="net_9 width_1" style="stroke-width: 1"/><line x1="105" x2="158" y1="260.5" y2="260.5" class="net_7 width_1" style="stroke-width: 1"/><line x1="158" x2="158" y1="260.5" y2="200.5" class="net_7 width_1" style="stroke-width: 1"/><line x1="158" x2="201" y1="200.5" y2="200.5" class="net_7 width_1" style="stroke-width: 1"/><line x1="108" x2="168" y1="328" y2="328" class="net_4 width_1" style="stroke-width: 1"/><line x1="168" x2="168" y1="328" y2="220.5" class="net_4 width_1" style="stroke-width: 1"/><circle cx="168" cy="328" r="2" style="fill:#000" class="net_4 width_1"/><line x1="168" x2="201" y1="220.5" y2="220.5" class="net_4 width_1" style="stroke-width: 1"/><line x1="108" x2="202" y1="328" y2="328" class="net_4 width_1" style="stroke-width: 1"/><line x1="108" x2="178" y1="393" y2="393" class="net_5 width_1" style="stroke-width: 1"/><line x1="178" x2="178" y1="393" y2="260.5" class="net_5 width_1" style="stroke-width: 1"/><circle cx="178" cy="393" r="2" style="fill:#000" class="net_5 width_1"/><line x1="178" x2="201" y1="260.5" y2="260.5" class="net_5 width_1" style="stroke-width: 1"/><line x1="108" x2="202" y1="393" y2="393" class="net_5 width_1" style="stroke-width: 1"/></svg>